<svg width="22" height="21" viewBox="0 0 22 21" fill="none" xmlns="http://www.w3.org/2000/svg">
<path d="M21.1875 18.6667C21.1875 19.9552 20.1427 21 18.8542 21H2.52083C1.23225 21 0.1875 19.9552 0.1875 18.6667V2.33333C0.1875 1.04475 1.23225 0 2.52083 0H18.8542C20.1427 0 21.1875 1.04475 21.1875 2.33333V18.6667Z" fill="#86C232"/>
<path d="M9.79072 6.51867H8.72381C7.85581 6.51867 7.49414 5.88575 7.49414 5.27092C7.49414 4.638 7.94622 4.02258 8.72381 4.02258H11.2916C12.0698 4.02258 12.5038 4.58317 12.5038 5.3065V15.5982C12.5038 16.503 11.9251 17.0087 11.147 17.0087C10.3694 17.0087 9.79072 16.503 9.79072 15.5982V6.51867Z" fill="white"/>
</svg>
