<svg width="22" height="21" viewBox="0 0 22 21" fill="none" xmlns="http://www.w3.org/2000/svg">
<path d="M21.1875 18.6667C21.1875 19.9552 20.1427 21 18.8542 21H2.52083C1.23225 21 0.1875 19.9552 0.1875 18.6667V2.33333C0.1875 1.04475 1.23225 0 2.52083 0H18.8542C20.1427 0 21.1875 1.04475 21.1875 2.33333V18.6667Z" fill="#86C232"/>
<path d="M13.6539 14.5291C14.4502 14.5291 15.0656 14.8907 15.0656 15.7226C15.0656 16.555 14.4502 16.9167 13.763 16.9167H7.72202C6.92636 16.9167 6.31152 16.555 6.31152 15.7226C6.31152 15.3434 6.54661 15.0173 6.72744 14.8003C8.22836 13.0101 9.85644 11.382 11.2314 9.39224C11.5569 8.92208 11.8643 8.36091 11.8643 7.70991C11.8643 6.96849 11.3037 6.31749 10.5617 6.31749C8.48152 6.31749 9.47669 9.24758 7.74011 9.24758C6.87211 9.24758 6.41944 8.63274 6.41944 7.92691C6.41944 5.64841 8.44536 3.82141 10.6702 3.82141C12.8956 3.82141 14.6853 5.28674 14.6853 7.58333C14.6853 10.0969 11.8824 12.5936 10.3447 14.5285L13.6539 14.5291Z" fill="white"/>
</svg>
