<svg width="22" height="21" viewBox="0 0 22 21" fill="none" xmlns="http://www.w3.org/2000/svg">
<path d="M21.1875 18.6667C21.1875 19.9552 20.1427 21 18.8542 21H2.52083C1.23225 21 0.1875 19.9552 0.1875 18.6667V2.33333C0.1875 1.04475 1.23225 0 2.52083 0H18.8542C20.1427 0 21.1875 1.04475 21.1875 2.33333V18.6667Z" fill="#86C232"/>
<path d="M6.46896 14.077C5.58288 14.077 5.20312 13.4809 5.20312 13.0101C5.20312 12.6123 5.34779 12.3947 5.45629 12.2144L9.50812 4.87085C9.90596 4.14752 10.4123 3.82202 11.3526 3.82202C12.402 3.82202 13.4328 4.4911 13.4328 6.13727V11.69H13.7402C14.4455 11.69 15.006 12.1608 15.006 12.8841C15.006 13.6074 14.4455 14.0776 13.7402 14.0776H13.4328V15.6153C13.4328 16.5743 13.053 17.0258 12.1308 17.0258C11.2085 17.0258 10.8282 16.5743 10.8282 15.6153V14.0776L6.46896 14.077ZM10.8282 6.6436H10.792L8.35021 11.6894H10.8282V6.6436Z" fill="white"/>
</svg>
