<svg width="883" height="495" viewBox="0 0 883 495" fill="none" xmlns="http://www.w3.org/2000/svg">
<path d="M25.167 27.0002H23.0547V18.7698H19.377V27.0002H17.2578V17.0061H25.167V27.0002ZM29.1865 23.1653C29.1865 23.9218 29.3096 24.4937 29.5557 24.8811C29.8063 25.2685 30.2119 25.4622 30.7725 25.4622C31.3285 25.4622 31.7272 25.2708 31.9688 24.8879C32.2148 24.5006 32.3379 23.9264 32.3379 23.1653C32.3379 22.4088 32.2148 21.8414 31.9688 21.4631C31.7227 21.0849 31.3193 20.8958 30.7588 20.8958C30.2028 20.8958 29.8018 21.0849 29.5557 21.4631C29.3096 21.8368 29.1865 22.4042 29.1865 23.1653ZM34.4707 23.1653C34.4707 24.4094 34.1426 25.3824 33.4863 26.0842C32.8301 26.7861 31.9163 27.137 30.7451 27.137C30.0114 27.137 29.3643 26.9775 28.8037 26.6584C28.2432 26.3349 27.8125 25.8723 27.5117 25.2708C27.2109 24.6692 27.0605 23.9674 27.0605 23.1653C27.0605 21.9166 27.3864 20.9459 28.0381 20.2532C28.6898 19.5605 29.6058 19.2141 30.7861 19.2141C31.5199 19.2141 32.167 19.3736 32.7275 19.6926C33.2881 20.0116 33.7188 20.4696 34.0195 21.0667C34.3203 21.6637 34.4707 22.3632 34.4707 23.1653ZM38.2783 19.3577V22.2971H41.1904V19.3577H43.2754V27.0002H41.1904V23.8489H38.2783V27.0002H36.1934V19.3577H38.2783ZM48.6279 20.6975C48.1859 20.6975 47.8395 20.8388 47.5889 21.1213C47.3382 21.3993 47.1947 21.7958 47.1582 22.3108H50.084C50.0749 21.7958 49.9404 21.3993 49.6807 21.1213C49.4209 20.8388 49.07 20.6975 48.6279 20.6975ZM48.9219 27.137C47.6914 27.137 46.7298 26.7974 46.0371 26.1184C45.3444 25.4394 44.998 24.4778 44.998 23.2336C44.998 21.953 45.3171 20.9641 45.9551 20.2668C46.5977 19.565 47.484 19.2141 48.6143 19.2141C49.6943 19.2141 50.5352 19.5217 51.1367 20.137C51.7383 20.7522 52.0391 21.6021 52.0391 22.6868V23.6985H47.1104C47.1331 24.2909 47.3086 24.7535 47.6367 25.0862C47.9648 25.4189 48.4251 25.5852 49.0176 25.5852C49.4779 25.5852 49.9131 25.5374 50.3232 25.4417C50.7334 25.3459 51.1618 25.1933 51.6084 24.9836V26.5969C51.2438 26.7792 50.8542 26.9137 50.4395 27.0002C50.0247 27.0914 49.5189 27.137 48.9219 27.137ZM58.5195 25.4758V20.9231H56.9541C56.8402 21.7708 56.6829 22.5751 56.4824 23.3362C56.2865 24.0972 56.013 24.8105 55.6621 25.4758H58.5195ZM61.7256 29.7415H59.8525V27.0002H54.7119V29.7415H52.8389V25.4758H53.4814C53.9189 24.7968 54.2858 23.94 54.582 22.9055C54.8783 21.871 55.0856 20.6884 55.2041 19.3577H60.6045V25.4758H61.7256V29.7415ZM66.1963 20.6975C65.7542 20.6975 65.4079 20.8388 65.1572 21.1213C64.9066 21.3993 64.763 21.7958 64.7266 22.3108H67.6523C67.6432 21.7958 67.5088 21.3993 67.249 21.1213C66.9893 20.8388 66.6383 20.6975 66.1963 20.6975ZM66.4902 27.137C65.2598 27.137 64.2982 26.7974 63.6055 26.1184C62.9128 25.4394 62.5664 24.4778 62.5664 23.2336C62.5664 21.953 62.8854 20.9641 63.5234 20.2668C64.166 19.565 65.0524 19.2141 66.1826 19.2141C67.2627 19.2141 68.1035 19.5217 68.7051 20.137C69.3066 20.7522 69.6074 21.6021 69.6074 22.6868V23.6985H64.6787C64.7015 24.2909 64.877 24.7535 65.2051 25.0862C65.5332 25.4189 65.9935 25.5852 66.5859 25.5852C67.0462 25.5852 67.4814 25.5374 67.8916 25.4417C68.3018 25.3459 68.7301 25.1933 69.1768 24.9836V26.5969C68.8122 26.7792 68.4225 26.9137 68.0078 27.0002C67.5931 27.0914 67.0872 27.137 66.4902 27.137ZM78.1455 27.0002H76.0605V20.9231H74.1396C73.9938 22.6321 73.8161 23.9081 73.6064 24.7512C73.3968 25.5898 73.1165 26.1982 72.7656 26.5764C72.4193 26.9501 71.9635 27.137 71.3984 27.137C70.9154 27.137 70.5189 27.064 70.209 26.9182V25.2502C70.4323 25.3414 70.6556 25.387 70.8789 25.387C71.1387 25.387 71.3551 25.2001 71.5283 24.8264C71.7061 24.4527 71.8633 23.8306 72 22.9602C72.1413 22.0852 72.262 20.8844 72.3623 19.3577H78.1455V27.0002ZM82.4248 22.3108H83.8945C85.0703 22.3108 85.9408 22.4976 86.5059 22.8713C87.071 23.245 87.3535 23.8101 87.3535 24.5667C87.3535 26.189 86.2279 27.0002 83.9766 27.0002H80.3398V19.3577H82.4248V22.3108ZM85.2686 24.594C85.2686 24.2978 85.1501 24.0836 84.9131 23.9514C84.6761 23.8193 84.3229 23.7532 83.8535 23.7532H82.4248V25.5579H83.8809C84.806 25.5579 85.2686 25.2366 85.2686 24.594ZM91.0244 19.3577V22.2971H93.9365V19.3577H96.0215V27.0002H93.9365V23.8489H91.0244V27.0002H88.9395V19.3577H91.0244ZM100.226 19.3577V22.3792C100.226 22.6982 100.173 23.4775 100.068 24.717L103.596 19.3577H106.104V27.0002H104.088V23.9514C104.088 23.4091 104.133 22.6435 104.225 21.6545L100.711 27.0002H98.209V19.3577H100.226ZM113.31 19.3577H115.606L112.578 23.0217L115.873 27.0002H113.508L110.384 23.1243V27.0002H108.299V19.3577H110.384V23.0696L113.31 19.3577Z" fill="black"/>
<path d="M159.258 17.0061H162.368C163.785 17.0061 164.813 17.2089 165.451 17.6145C166.094 18.0155 166.415 18.6558 166.415 19.5354C166.415 20.1324 166.274 20.6223 165.991 21.0051C165.713 21.3879 165.342 21.6181 164.877 21.6956V21.7639C165.51 21.9052 165.966 22.1695 166.244 22.5569C166.527 22.9443 166.668 23.4592 166.668 24.1018C166.668 25.0133 166.338 25.7242 165.677 26.2346C165.021 26.745 164.127 27.0002 162.997 27.0002H159.258V17.0061ZM161.377 20.9641H162.607C163.182 20.9641 163.596 20.8752 163.852 20.6975C164.111 20.5198 164.241 20.2258 164.241 19.8157C164.241 19.4329 164.1 19.1594 163.817 18.9954C163.539 18.8267 163.097 18.7424 162.491 18.7424H161.377V20.9641ZM161.377 22.6458V25.2502H162.758C163.341 25.2502 163.772 25.1386 164.05 24.9153C164.328 24.692 164.467 24.3502 164.467 23.8899C164.467 23.0605 163.874 22.6458 162.689 22.6458H161.377ZM174.823 19.3577V20.9231H172.321V27.0002H170.236V20.9231H167.728V19.3577H174.823ZM177.845 23.1653C177.845 23.9218 177.968 24.4937 178.214 24.8811C178.465 25.2685 178.87 25.4622 179.431 25.4622C179.987 25.4622 180.385 25.2708 180.627 24.8879C180.873 24.5006 180.996 23.9264 180.996 23.1653C180.996 22.4088 180.873 21.8414 180.627 21.4631C180.381 21.0849 179.978 20.8958 179.417 20.8958C178.861 20.8958 178.46 21.0849 178.214 21.4631C177.968 21.8368 177.845 22.4042 177.845 23.1653ZM183.129 23.1653C183.129 24.4094 182.801 25.3824 182.145 26.0842C181.488 26.7861 180.575 27.137 179.403 27.137C178.67 27.137 178.022 26.9775 177.462 26.6584C176.901 26.3349 176.471 25.8723 176.17 25.2708C175.869 24.6692 175.719 23.9674 175.719 23.1653C175.719 21.9166 176.045 20.9459 176.696 20.2532C177.348 19.5605 178.264 19.2141 179.444 19.2141C180.178 19.2141 180.825 19.3736 181.386 19.6926C181.946 20.0116 182.377 20.4696 182.678 21.0667C182.979 21.6637 183.129 22.3632 183.129 23.1653ZM189.049 27.137C188.151 27.137 187.447 26.8111 186.937 26.1594H186.827C186.9 26.7974 186.937 27.1666 186.937 27.2668V30.3635H184.852V19.3577H186.547L186.841 20.3489H186.937C187.424 19.5924 188.146 19.2141 189.104 19.2141C190.006 19.2141 190.712 19.5627 191.223 20.26C191.733 20.9573 191.988 21.9257 191.988 23.1653C191.988 23.981 191.868 24.6897 191.626 25.2913C191.389 25.8928 191.049 26.3508 190.607 26.6653C190.165 26.9797 189.646 27.137 189.049 27.137ZM188.434 20.8821C187.919 20.8821 187.543 21.0416 187.306 21.3606C187.069 21.675 186.946 22.1969 186.937 22.926V23.1516C186.937 23.9719 187.057 24.5598 187.299 24.9153C187.545 25.2708 187.932 25.4485 188.461 25.4485C189.395 25.4485 189.862 24.6783 189.862 23.1379C189.862 22.386 189.746 21.8232 189.514 21.4495C189.286 21.0712 188.926 20.8821 188.434 20.8821ZM195.796 19.3577V22.2971H198.708V19.3577H200.793V27.0002H198.708V23.8489H195.796V27.0002H193.711V19.3577H195.796ZM204.997 19.3577V22.3792C204.997 22.6982 204.945 23.4775 204.84 24.717L208.367 19.3577H210.876V27.0002H208.859V23.9514C208.859 23.4091 208.905 22.6435 208.996 21.6545L205.482 27.0002H202.98V19.3577H204.997ZM218.081 19.3577H220.378L217.35 23.0217L220.645 27.0002H218.279L215.155 23.1243V27.0002H213.07V19.3577H215.155V23.0696L218.081 19.3577Z" fill="black"/>
<path d="M296.556 17.9832C295.758 17.9832 295.141 18.2839 294.703 18.8855C294.266 19.4825 294.047 20.3165 294.047 21.3875C294.047 23.616 294.883 24.7302 296.556 24.7302C297.257 24.7302 298.107 24.5548 299.105 24.2039V25.9812C298.285 26.323 297.369 26.4939 296.357 26.4939C294.904 26.4939 293.792 26.0541 293.021 25.1746C292.251 24.2904 291.866 23.0235 291.866 21.3738C291.866 20.3347 292.055 19.4255 292.434 18.6462C292.812 17.8624 293.354 17.2631 294.061 16.8484C294.771 16.4291 295.603 16.2195 296.556 16.2195C297.526 16.2195 298.502 16.4542 299.481 16.9236L298.798 18.6462C298.424 18.4685 298.048 18.3136 297.67 18.1814C297.292 18.0492 296.92 17.9832 296.556 17.9832ZM305.271 26.4939C304.374 26.4939 303.67 26.1681 303.159 25.5164H303.05C303.123 26.1544 303.159 26.5235 303.159 26.6238V29.7205H301.074V18.7146H302.77L303.063 19.7058H303.159C303.647 18.9493 304.369 18.571 305.326 18.571C306.229 18.571 306.935 18.9197 307.445 19.6169C307.956 20.3142 308.211 21.2826 308.211 22.5222C308.211 23.338 308.09 24.0466 307.849 24.6482C307.612 25.2498 307.272 25.7078 306.83 26.0222C306.388 26.3367 305.868 26.4939 305.271 26.4939ZM304.656 20.239C304.141 20.239 303.765 20.3985 303.528 20.7175C303.291 21.032 303.168 21.5538 303.159 22.283V22.5085C303.159 23.3289 303.28 23.9167 303.521 24.2722C303.768 24.6277 304.155 24.8054 304.684 24.8054C305.618 24.8054 306.085 24.0352 306.085 22.4949C306.085 21.7429 305.969 21.1801 305.736 20.8064C305.508 20.4281 305.148 20.239 304.656 20.239ZM313.099 20.0544C312.657 20.0544 312.31 20.1957 312.06 20.4783C311.809 20.7563 311.665 21.1528 311.629 21.6677H314.555C314.546 21.1528 314.411 20.7563 314.151 20.4783C313.892 20.1957 313.541 20.0544 313.099 20.0544ZM313.393 26.4939C312.162 26.4939 311.201 26.1544 310.508 25.4753C309.815 24.7963 309.469 23.8347 309.469 22.5906C309.469 21.31 309.788 20.321 310.426 19.6238C311.068 18.922 311.955 18.571 313.085 18.571C314.165 18.571 315.006 18.8787 315.607 19.4939C316.209 20.1091 316.51 20.9591 316.51 22.0437V23.0554H311.581C311.604 23.6479 311.779 24.1104 312.107 24.4431C312.436 24.7758 312.896 24.9421 313.488 24.9421C313.949 24.9421 314.384 24.8943 314.794 24.7986C315.204 24.7029 315.632 24.5502 316.079 24.3406V25.9539C315.715 26.1361 315.325 26.2706 314.91 26.3572C314.495 26.4483 313.99 26.4939 313.393 26.4939ZM322.99 24.8328V20.28H321.425C321.311 21.1277 321.154 21.932 320.953 22.6931C320.757 23.4542 320.484 24.1674 320.133 24.8328H322.99ZM326.196 29.0984H324.323V26.3572H319.183V29.0984H317.31V24.8328H317.952C318.39 24.1537 318.757 23.297 319.053 22.2625C319.349 21.2279 319.556 20.0453 319.675 18.7146H325.075V24.8328H326.196V29.0984ZM332.355 26.3572L331.952 25.3181H331.897C331.547 25.7602 331.184 26.0678 330.811 26.241C330.441 26.4096 329.958 26.4939 329.361 26.4939C328.628 26.4939 328.049 26.2843 327.625 25.865C327.206 25.4457 326.996 24.8487 326.996 24.074C326.996 23.2628 327.279 22.6658 327.844 22.283C328.413 21.8956 329.27 21.6814 330.414 21.6404L331.74 21.5994V21.2644C331.74 20.4897 331.344 20.1023 330.551 20.1023C329.94 20.1023 329.222 20.2869 328.397 20.656L327.707 19.2478C328.587 18.7875 329.562 18.5574 330.633 18.5574C331.658 18.5574 332.444 18.7807 332.991 19.2273C333.538 19.6739 333.812 20.3529 333.812 21.2644V26.3572H332.355ZM331.74 22.8162L330.934 22.8435C330.327 22.8617 329.876 22.9711 329.58 23.1716C329.284 23.3722 329.136 23.6775 329.136 24.0876C329.136 24.6755 329.473 24.9695 330.147 24.9695C330.631 24.9695 331.016 24.8305 331.303 24.5525C331.594 24.2745 331.74 23.9054 331.74 23.4451V22.8162Z" fill="black"/>
<path d="M417.396 26.3572H415.276V22.4949C414.575 22.7319 413.989 22.8936 413.52 22.9802C413.055 23.0668 412.61 23.1101 412.187 23.1101C411.234 23.1101 410.498 22.8822 409.979 22.4265C409.464 21.9662 409.206 21.3214 409.206 20.4919V16.363H411.318V19.8904C411.318 20.3735 411.43 20.738 411.653 20.9841C411.877 21.2257 412.255 21.3464 412.788 21.3464C413.162 21.3464 413.533 21.31 413.902 21.2371C414.276 21.1596 414.734 21.0274 415.276 20.8406V16.363H417.396V26.3572ZM422.919 20.0544C422.477 20.0544 422.131 20.1957 421.88 20.4783C421.629 20.7563 421.486 21.1528 421.449 21.6677H424.375C424.366 21.1528 424.231 20.7563 423.972 20.4783C423.712 20.1957 423.361 20.0544 422.919 20.0544ZM423.213 26.4939C421.982 26.4939 421.021 26.1544 420.328 25.4753C419.635 24.7963 419.289 23.8347 419.289 22.5906C419.289 21.31 419.608 20.321 420.246 19.6238C420.889 18.922 421.775 18.571 422.905 18.571C423.985 18.571 424.826 18.8787 425.428 19.4939C426.029 20.1091 426.33 20.9591 426.33 22.0437V23.0554H421.401C421.424 23.6479 421.6 24.1104 421.928 24.4431C422.256 24.7758 422.716 24.9421 423.309 24.9421C423.769 24.9421 424.204 24.8943 424.614 24.7986C425.024 24.7029 425.453 24.5502 425.899 24.3406V25.9539C425.535 26.1361 425.145 26.2706 424.73 26.3572C424.316 26.4483 423.81 26.4939 423.213 26.4939ZM434.349 18.7146V20.28H431.847V26.3572H429.762V20.28H427.253V18.7146H434.349ZM442.832 20.7175C442.832 21.1277 442.702 21.4786 442.442 21.7703C442.187 22.0574 441.809 22.2419 441.308 22.324V22.3787C441.85 22.4425 442.278 22.6293 442.593 22.9392C442.912 23.2445 443.071 23.6228 443.071 24.074C443.071 24.8168 442.78 25.3842 442.196 25.7761C441.613 26.1635 440.779 26.3572 439.694 26.3572H435.777V18.7146H439.694C440.743 18.7146 441.526 18.8855 442.046 19.2273C442.57 19.5645 442.832 20.0613 442.832 20.7175ZM440.911 23.9646C440.911 23.6638 440.795 23.4473 440.562 23.3152C440.33 23.1785 439.981 23.1101 439.517 23.1101H437.862V24.9148H439.558C440 24.9148 440.335 24.8328 440.562 24.6687C440.795 24.5001 440.911 24.2654 440.911 23.9646ZM440.72 20.8816C440.72 20.4167 440.351 20.1843 439.612 20.1843H437.862V21.6951H439.373C439.815 21.6951 440.15 21.6313 440.378 21.5037C440.606 21.3761 440.72 21.1687 440.72 20.8816ZM447.897 20.0544C447.455 20.0544 447.109 20.1957 446.858 20.4783C446.608 20.7563 446.464 21.1528 446.428 21.6677H449.354C449.344 21.1528 449.21 20.7563 448.95 20.4783C448.69 20.1957 448.34 20.0544 447.897 20.0544ZM448.191 26.4939C446.961 26.4939 445.999 26.1544 445.307 25.4753C444.614 24.7963 444.268 23.8347 444.268 22.5906C444.268 21.31 444.587 20.321 445.225 19.6238C445.867 18.922 446.754 18.571 447.884 18.571C448.964 18.571 449.805 18.8787 450.406 19.4939C451.008 20.1091 451.309 20.9591 451.309 22.0437V23.0554H446.38C446.403 23.6479 446.578 24.1104 446.906 24.4431C447.234 24.7758 447.695 24.9421 448.287 24.9421C448.747 24.9421 449.183 24.8943 449.593 24.7986C450.003 24.7029 450.431 24.5502 450.878 24.3406V25.9539C450.513 26.1361 450.124 26.2706 449.709 26.3572C449.294 26.4483 448.788 26.4939 448.191 26.4939ZM457.201 26.4939C456.303 26.4939 455.599 26.1681 455.089 25.5164H454.979C455.052 26.1544 455.089 26.5235 455.089 26.6238V29.7205H453.004V18.7146H454.699L454.993 19.7058H455.089C455.576 18.9493 456.299 18.571 457.256 18.571C458.158 18.571 458.865 18.9197 459.375 19.6169C459.885 20.3142 460.141 21.2826 460.141 22.5222C460.141 23.338 460.02 24.0466 459.778 24.6482C459.541 25.2498 459.202 25.7078 458.76 26.0222C458.318 26.3367 457.798 26.4939 457.201 26.4939ZM456.586 20.239C456.071 20.239 455.695 20.3985 455.458 20.7175C455.221 21.032 455.098 21.5538 455.089 22.283V22.5085C455.089 23.3289 455.21 23.9167 455.451 24.2722C455.697 24.6277 456.085 24.8054 456.613 24.8054C457.548 24.8054 458.015 24.0352 458.015 22.4949C458.015 21.7429 457.898 21.1801 457.666 20.8064C457.438 20.4281 457.078 20.239 456.586 20.239ZM467.141 18.7146V20.28H463.948V26.3572H461.863V18.7146H467.141Z" fill="black"/>
<path d="M540.956 26.3572H538.844V18.1267H535.166V26.3572H533.047V16.363H540.956V26.3572ZM544.477 26.3572H542.221L544.278 23.3357C543.786 23.1306 543.412 22.8344 543.157 22.447C542.907 22.0597 542.781 21.6039 542.781 21.0798C542.781 20.3416 543.057 19.7628 543.608 19.3435C544.164 18.9242 544.921 18.7146 545.878 18.7146H549.433V26.3572H547.348V23.5134H546.199L544.477 26.3572ZM544.825 21.0935C544.825 21.4125 544.951 21.6632 545.201 21.8455C545.452 22.0232 545.78 22.1121 546.186 22.1121H547.348V20.1843H545.919C545.577 20.1843 545.308 20.2686 545.112 20.4373C544.921 20.6013 544.825 20.8201 544.825 21.0935ZM557.937 18.7146V20.28H555.435V26.3572H553.35V20.28H550.841V18.7146H557.937ZM561.45 18.7146V21.6541H564.362V18.7146H566.447V26.3572H564.362V23.2058H561.45V26.3572H559.365V18.7146H561.45ZM570.651 18.7146V21.7361C570.651 22.0551 570.599 22.8344 570.494 24.074L574.021 18.7146H576.53V26.3572H574.514V23.3083C574.514 22.766 574.559 22.0004 574.65 21.0115L571.137 26.3572H568.635V18.7146H570.651ZM585.95 24.8328H587.064V29.0984H585.191V26.3572H578.725V18.7146H580.81V24.7917H583.858V18.7146H585.95V24.8328ZM593.217 26.3572L592.813 25.3181H592.759C592.408 25.7602 592.046 26.0678 591.672 26.241C591.303 26.4096 590.82 26.4939 590.223 26.4939C589.489 26.4939 588.91 26.2843 588.486 25.865C588.067 25.4457 587.857 24.8487 587.857 24.074C587.857 23.2628 588.14 22.6658 588.705 22.283C589.275 21.8956 590.132 21.6814 591.275 21.6404L592.602 21.5994V21.2644C592.602 20.4897 592.205 20.1023 591.412 20.1023C590.801 20.1023 590.084 20.2869 589.259 20.656L588.568 19.2478C589.448 18.7875 590.423 18.5574 591.494 18.5574C592.52 18.5574 593.306 18.7807 593.853 19.2273C594.399 19.6739 594.673 20.3529 594.673 21.2644V26.3572H593.217ZM592.602 22.8162L591.795 22.8435C591.189 22.8617 590.738 22.9711 590.441 23.1716C590.145 23.3722 589.997 23.6775 589.997 24.0876C589.997 24.6755 590.334 24.9695 591.009 24.9695C591.492 24.9695 591.877 24.8305 592.164 24.5525C592.456 24.2745 592.602 23.9054 592.602 23.4451V22.8162Z" fill="black"/>
<path d="M666.539 17.9832C665.742 17.9832 665.124 18.2839 664.687 18.8855C664.249 19.4825 664.03 20.3165 664.03 21.3875C664.03 23.616 664.867 24.7302 666.539 24.7302C667.241 24.7302 668.091 24.5548 669.089 24.2039V25.9812C668.269 26.323 667.353 26.4939 666.341 26.4939C664.887 26.4939 663.775 26.0541 663.005 25.1746C662.235 24.2904 661.85 23.0235 661.85 21.3738C661.85 20.3347 662.039 19.4255 662.417 18.6462C662.795 17.8624 663.338 17.2631 664.044 16.8484C664.755 16.4291 665.587 16.2195 666.539 16.2195C667.51 16.2195 668.485 16.4542 669.465 16.9236L668.781 18.6462C668.408 18.4685 668.032 18.3136 667.653 18.1814C667.275 18.0492 666.904 17.9832 666.539 17.9832ZM669.964 18.7146H672.247L673.689 23.0144C673.812 23.3881 673.897 23.8302 673.942 24.3406H673.983C674.034 23.8712 674.132 23.4291 674.277 23.0144L675.692 18.7146H677.928L674.694 27.3347C674.398 28.1322 673.974 28.7292 673.423 29.1257C672.876 29.5222 672.236 29.7205 671.502 29.7205C671.142 29.7205 670.789 29.6817 670.442 29.6042V27.95C670.693 28.0092 670.966 28.0388 671.263 28.0388C671.632 28.0388 671.953 27.9249 672.227 27.697C672.505 27.4737 672.721 27.1342 672.876 26.6785L672.999 26.3025L669.964 18.7146ZM678.563 21.7771C678.563 20.0225 678.896 18.6918 679.562 17.7849C680.231 16.8735 681.275 16.297 682.692 16.0554C683.189 15.9688 683.688 15.8982 684.189 15.8435C684.695 15.7843 685.224 15.7182 685.775 15.6453L686.015 17.4705C684.857 17.6026 683.973 17.7097 683.362 17.7917C682.756 17.8738 682.31 17.9649 682.022 18.0652C681.735 18.1609 681.498 18.2999 681.312 18.4822C681.129 18.6645 680.988 18.906 680.888 19.2068C680.787 19.503 680.721 19.8995 680.689 20.3962H680.792C681.034 20.0225 681.353 19.7354 681.749 19.5349C682.146 19.3344 682.572 19.2341 683.027 19.2341C683.971 19.2341 684.704 19.5235 685.229 20.1023C685.753 20.6765 686.015 21.5014 686.015 22.5769C686.015 23.8165 685.682 24.7804 685.017 25.4685C684.356 26.1521 683.442 26.4939 682.275 26.4939C681.109 26.4939 680.197 26.0769 679.541 25.2429C678.889 24.4044 678.563 23.2491 678.563 21.7771ZM682.398 24.8054C683.387 24.8054 683.882 24.1241 683.882 22.7615C683.882 21.4353 683.435 20.7722 682.542 20.7722C682.296 20.7722 682.05 20.8292 681.804 20.9431C681.562 21.057 681.339 21.2074 681.134 21.3943C680.933 21.5766 680.785 21.7611 680.689 21.948C680.689 22.8731 680.838 23.5818 681.134 24.074C681.43 24.5616 681.852 24.8054 682.398 24.8054ZM687.272 21.7771C687.272 20.0225 687.605 18.6918 688.271 17.7849C688.94 16.8735 689.984 16.297 691.401 16.0554C691.898 15.9688 692.397 15.8982 692.898 15.8435C693.404 15.7843 693.933 15.7182 694.484 15.6453L694.724 17.4705C693.566 17.6026 692.682 17.7097 692.071 17.7917C691.465 17.8738 691.019 17.9649 690.731 18.0652C690.444 18.1609 690.207 18.2999 690.021 18.4822C689.838 18.6645 689.697 18.906 689.597 19.2068C689.496 19.503 689.43 19.8995 689.398 20.3962H689.501C689.743 20.0225 690.062 19.7354 690.458 19.5349C690.854 19.3344 691.281 19.2341 691.736 19.2341C692.68 19.2341 693.413 19.5235 693.938 20.1023C694.462 20.6765 694.724 21.5014 694.724 22.5769C694.724 23.8165 694.391 24.7804 693.726 25.4685C693.065 26.1521 692.151 26.4939 690.984 26.4939C689.818 26.4939 688.906 26.0769 688.25 25.2429C687.598 24.4044 687.272 23.2491 687.272 21.7771ZM691.107 24.8054C692.096 24.8054 692.591 24.1241 692.591 22.7615C692.591 21.4353 692.144 20.7722 691.251 20.7722C691.005 20.7722 690.759 20.8292 690.513 20.9431C690.271 21.057 690.048 21.2074 689.843 21.3943C689.642 21.5766 689.494 21.7611 689.398 21.948C689.398 22.8731 689.547 23.5818 689.843 24.074C690.139 24.5616 690.561 24.8054 691.107 24.8054ZM698.107 22.5222C698.107 23.2787 698.23 23.8507 698.477 24.238C698.727 24.6254 699.133 24.8191 699.693 24.8191C700.249 24.8191 700.648 24.6277 700.89 24.2449C701.136 23.8575 701.259 23.2833 701.259 22.5222C701.259 21.7657 701.136 21.1983 700.89 20.8201C700.644 20.4418 700.24 20.2527 699.68 20.2527C699.124 20.2527 698.723 20.4418 698.477 20.8201C698.23 21.1938 698.107 21.7611 698.107 22.5222ZM703.392 22.5222C703.392 23.7664 703.063 24.7393 702.407 25.4412C701.751 26.143 700.837 26.4939 699.666 26.4939C698.932 26.4939 698.285 26.3344 697.725 26.0154C697.164 25.6918 696.733 25.2292 696.433 24.6277C696.132 24.0261 695.981 23.3243 695.981 22.5222C695.981 21.2735 696.307 20.3028 696.959 19.6101C697.611 18.9174 698.527 18.571 699.707 18.571C700.441 18.571 701.088 18.7306 701.648 19.0496C702.209 19.3686 702.64 19.8266 702.94 20.4236C703.241 21.0206 703.392 21.7201 703.392 22.5222ZM711.369 18.7146V20.28H708.867V26.3572H706.782V20.28H704.273V18.7146H711.369ZM717.651 26.3572L717.248 25.3181H717.193C716.842 25.7602 716.48 26.0678 716.106 26.241C715.737 26.4096 715.254 26.4939 714.657 26.4939C713.924 26.4939 713.345 26.2843 712.921 25.865C712.502 25.4457 712.292 24.8487 712.292 24.074C712.292 23.2628 712.575 22.6658 713.14 22.283C713.709 21.8956 714.566 21.6814 715.71 21.6404L717.036 21.5994V21.2644C717.036 20.4897 716.64 20.1023 715.847 20.1023C715.236 20.1023 714.518 20.2869 713.693 20.656L713.003 19.2478C713.882 18.7875 714.858 18.5574 715.929 18.5574C716.954 18.5574 717.74 18.7807 718.287 19.2273C718.834 19.6739 719.107 20.3529 719.107 21.2644V26.3572H717.651ZM717.036 22.8162L716.229 22.8435C715.623 22.8617 715.172 22.9711 714.876 23.1716C714.58 23.3722 714.432 23.6775 714.432 24.0876C714.432 24.6755 714.769 24.9695 715.443 24.9695C715.926 24.9695 716.312 24.8305 716.599 24.5525C716.89 24.2745 717.036 23.9054 717.036 23.4451V22.8162Z" fill="black"/>
<path d="M769.836 16.363H772.946C774.364 16.363 775.391 16.5658 776.029 16.9714C776.672 17.3725 776.993 18.0128 776.993 18.8923C776.993 19.4893 776.852 19.9792 776.569 20.3621C776.291 20.7449 775.92 20.975 775.455 21.0525V21.1208C776.089 21.2621 776.544 21.5264 776.822 21.9138C777.105 22.3012 777.246 22.8162 777.246 23.4587C777.246 24.3702 776.916 25.0811 776.255 25.5916C775.599 26.102 774.705 26.3572 773.575 26.3572H769.836V16.363ZM771.955 20.321H773.186C773.76 20.321 774.174 20.2322 774.43 20.0544C774.689 19.8767 774.819 19.5828 774.819 19.1726C774.819 18.7898 774.678 18.5164 774.396 18.3523C774.118 18.1837 773.675 18.0994 773.069 18.0994H771.955V20.321ZM771.955 22.0027V24.6072H773.336C773.919 24.6072 774.35 24.4955 774.628 24.2722C774.906 24.0489 775.045 23.7071 775.045 23.2468C775.045 22.4174 774.452 22.0027 773.268 22.0027H771.955ZM780.739 22.5222C780.739 23.2787 780.862 23.8507 781.108 24.238C781.359 24.6254 781.765 24.8191 782.325 24.8191C782.881 24.8191 783.28 24.6277 783.521 24.2449C783.768 23.8575 783.891 23.2833 783.891 22.5222C783.891 21.7657 783.768 21.1983 783.521 20.8201C783.275 20.4418 782.872 20.2527 782.312 20.2527C781.756 20.2527 781.354 20.4418 781.108 20.8201C780.862 21.1938 780.739 21.7611 780.739 22.5222ZM786.023 22.5222C786.023 23.7664 785.695 24.7393 785.039 25.4412C784.383 26.143 783.469 26.4939 782.298 26.4939C781.564 26.4939 780.917 26.3344 780.356 26.0154C779.796 25.6918 779.365 25.2292 779.064 24.6277C778.764 24.0261 778.613 23.3243 778.613 22.5222C778.613 21.2735 778.939 20.3028 779.591 19.6101C780.243 18.9174 781.159 18.571 782.339 18.571C783.073 18.571 783.72 18.7306 784.28 19.0496C784.841 19.3686 785.271 19.8266 785.572 20.4236C785.873 21.0206 786.023 21.7201 786.023 22.5222ZM790.85 26.4939C788.471 26.4939 787.281 25.1882 787.281 22.5769C787.281 21.2781 787.605 20.2869 788.252 19.6033C788.899 18.9151 789.826 18.571 791.034 18.571C791.918 18.571 792.711 18.7442 793.413 19.0906L792.798 20.7039C792.47 20.5717 792.164 20.4646 791.882 20.3826C791.599 20.296 791.317 20.2527 791.034 20.2527C789.95 20.2527 789.407 21.0229 789.407 22.5632C789.407 24.058 789.95 24.8054 791.034 24.8054C791.435 24.8054 791.807 24.753 792.148 24.6482C792.49 24.5388 792.832 24.3702 793.174 24.1423V25.9265C792.837 26.1407 792.495 26.2888 792.148 26.3708C791.807 26.4529 791.374 26.4939 790.85 26.4939ZM799.962 18.7146H802.259L799.23 22.3787L802.525 26.3572H800.16L797.036 22.4812V26.3572H794.951V18.7146H797.036V22.4265L799.962 18.7146ZM807.816 26.4939C806.919 26.4939 806.215 26.1681 805.704 25.5164H805.595C805.668 26.1544 805.704 26.5235 805.704 26.6238V29.7205H803.619V18.7146H805.314L805.608 19.7058H805.704C806.192 18.9493 806.914 18.571 807.871 18.571C808.773 18.571 809.48 18.9197 809.99 19.6169C810.501 20.3142 810.756 21.2826 810.756 22.5222C810.756 23.338 810.635 24.0466 810.394 24.6482C810.157 25.2498 809.817 25.7078 809.375 26.0222C808.933 26.3367 808.413 26.4939 807.816 26.4939ZM807.201 20.239C806.686 20.239 806.31 20.3985 806.073 20.7175C805.836 21.032 805.713 21.5538 805.704 22.283V22.5085C805.704 23.3289 805.825 23.9167 806.066 24.2722C806.312 24.6277 806.7 24.8054 807.229 24.8054C808.163 24.8054 808.63 24.0352 808.63 22.4949C808.63 21.7429 808.514 21.1801 808.281 20.8064C808.053 20.4281 807.693 20.239 807.201 20.239ZM815.644 20.0544C815.201 20.0544 814.855 20.1957 814.604 20.4783C814.354 20.7563 814.21 21.1528 814.174 21.6677H817.1C817.09 21.1528 816.956 20.7563 816.696 20.4783C816.437 20.1957 816.086 20.0544 815.644 20.0544ZM815.938 26.4939C814.707 26.4939 813.745 26.1544 813.053 25.4753C812.36 24.7963 812.014 23.8347 812.014 22.5906C812.014 21.31 812.333 20.321 812.971 19.6238C813.613 18.922 814.5 18.571 815.63 18.571C816.71 18.571 817.551 18.8787 818.152 19.4939C818.754 20.1091 819.055 20.9591 819.055 22.0437V23.0554H814.126C814.149 23.6479 814.324 24.1104 814.652 24.4431C814.98 24.7758 815.441 24.9421 816.033 24.9421C816.493 24.9421 816.929 24.8943 817.339 24.7986C817.749 24.7029 818.177 24.5502 818.624 24.3406V25.9539C818.259 26.1361 817.87 26.2706 817.455 26.3572C817.04 26.4483 816.535 26.4939 815.938 26.4939ZM823.854 26.4939C821.475 26.4939 820.285 25.1882 820.285 22.5769C820.285 21.2781 820.609 20.2869 821.256 19.6033C821.903 18.9151 822.83 18.571 824.038 18.571C824.922 18.571 825.715 18.7442 826.417 19.0906L825.802 20.7039C825.474 20.5717 825.168 20.4646 824.886 20.3826C824.603 20.296 824.321 20.2527 824.038 20.2527C822.953 20.2527 822.411 21.0229 822.411 22.5632C822.411 24.058 822.953 24.8054 824.038 24.8054C824.439 24.8054 824.811 24.753 825.152 24.6482C825.494 24.5388 825.836 24.3702 826.178 24.1423V25.9265C825.84 26.1407 825.499 26.2888 825.152 26.3708C824.811 26.4529 824.378 26.4939 823.854 26.4939ZM831.12 20.0544C830.678 20.0544 830.332 20.1957 830.081 20.4783C829.83 20.7563 829.687 21.1528 829.65 21.6677H832.576C832.567 21.1528 832.433 20.7563 832.173 20.4783C831.913 20.1957 831.562 20.0544 831.12 20.0544ZM831.414 26.4939C830.184 26.4939 829.222 26.1544 828.529 25.4753C827.837 24.7963 827.49 23.8347 827.49 22.5906C827.49 21.31 827.809 20.321 828.447 19.6238C829.09 18.922 829.976 18.571 831.106 18.571C832.187 18.571 833.027 18.8787 833.629 19.4939C834.23 20.1091 834.531 20.9591 834.531 22.0437V23.0554H829.603C829.625 23.6479 829.801 24.1104 830.129 24.4431C830.457 24.7758 830.917 24.9421 831.51 24.9421C831.97 24.9421 832.405 24.8943 832.815 24.7986C833.226 24.7029 833.654 24.5502 834.101 24.3406V25.9539C833.736 26.1361 833.346 26.2706 832.932 26.3572C832.517 26.4483 832.011 26.4939 831.414 26.4939ZM838.312 18.7146V21.6541H841.224V18.7146H843.309V26.3572H841.224V23.2058H838.312V26.3572H836.227V18.7146H838.312ZM847.581 21.6677H849.051C850.227 21.6677 851.097 21.8546 851.662 22.2283C852.227 22.602 852.51 23.1671 852.51 23.9236C852.51 25.546 851.384 26.3572 849.133 26.3572H845.496V18.7146H847.581V21.6677ZM850.425 23.9509C850.425 23.6547 850.306 23.4405 850.069 23.3083C849.832 23.1762 849.479 23.1101 849.01 23.1101H847.581V24.9148H849.037C849.962 24.9148 850.425 24.5935 850.425 23.9509ZM857.261 20.0544C856.819 20.0544 856.472 20.1957 856.222 20.4783C855.971 20.7563 855.827 21.1528 855.791 21.6677H858.717C858.708 21.1528 858.573 20.7563 858.313 20.4783C858.054 20.1957 857.703 20.0544 857.261 20.0544ZM857.555 26.4939C856.324 26.4939 855.363 26.1544 854.67 25.4753C853.977 24.7963 853.631 23.8347 853.631 22.5906C853.631 21.31 853.95 20.321 854.588 19.6238C855.23 18.922 856.117 18.571 857.247 18.571C858.327 18.571 859.168 18.8787 859.77 19.4939C860.371 20.1091 860.672 20.9591 860.672 22.0437V23.0554H855.743C855.766 23.6479 855.941 24.1104 856.27 24.4431C856.598 24.7758 857.058 24.9421 857.65 24.9421C858.111 24.9421 858.546 24.8943 858.956 24.7986C859.366 24.7029 859.795 24.5502 860.241 24.3406V25.9539C859.877 26.1361 859.487 26.2706 859.072 26.3572C858.658 26.4483 858.152 26.4939 857.555 26.4939Z" fill="black"/>
<path d="M763.402 58.4173C763.402 57.0413 763.626 55.9693 764.074 55.2013C764.522 54.4253 765.306 54.0373 766.426 54.0373C767.538 54.0373 768.318 54.4253 768.766 55.2013C769.214 55.9693 769.438 57.0413 769.438 58.4173C769.438 59.8173 769.214 60.9053 768.766 61.6813C768.318 62.4573 767.538 62.8453 766.426 62.8453C765.306 62.8453 764.522 62.4573 764.074 61.6813C763.626 60.9053 763.402 59.8173 763.402 58.4173ZM768.358 58.4173C768.358 57.7213 768.31 57.1333 768.214 56.6533C768.126 56.1653 767.938 55.7733 767.65 55.4773C767.37 55.1813 766.962 55.0333 766.426 55.0333C765.882 55.0333 765.466 55.1813 765.178 55.4773C764.898 55.7733 764.71 56.1653 764.614 56.6533C764.526 57.1333 764.482 57.7213 764.482 58.4173C764.482 59.1373 764.526 59.7413 764.614 60.2293C764.71 60.7173 764.898 61.1093 765.178 61.4053C765.466 61.7013 765.882 61.8493 766.426 61.8493C766.962 61.8493 767.37 61.7013 767.65 61.4053C767.938 61.1093 768.126 60.7173 768.214 60.2293C768.31 59.7413 768.358 59.1373 768.358 58.4173ZM770.649 55.1653V54.1693H772.905V62.8453H771.801V55.1653H770.649Z" fill="black"/>
<path d="M5.67662 147.235C5.67662 145.859 5.90062 144.787 6.34862 144.019C6.79662 143.243 7.58062 142.855 8.70062 142.855C9.81262 142.855 10.5926 143.243 11.0406 144.019C11.4886 144.787 11.7126 145.859 11.7126 147.235C11.7126 148.635 11.4886 149.723 11.0406 150.499C10.5926 151.275 9.81262 151.663 8.70062 151.663C7.58062 151.663 6.79662 151.275 6.34862 150.499C5.90062 149.723 5.67662 148.635 5.67662 147.235ZM10.6326 147.235C10.6326 146.539 10.5846 145.951 10.4886 145.471C10.4006 144.983 10.2126 144.591 9.92462 144.295C9.64462 143.999 9.23662 143.851 8.70062 143.851C8.15662 143.851 7.74062 143.999 7.45262 144.295C7.17262 144.591 6.98462 144.983 6.88862 145.471C6.80062 145.951 6.75662 146.539 6.75662 147.235C6.75662 147.955 6.80062 148.559 6.88862 149.047C6.98462 149.535 7.17262 149.927 7.45262 150.223C7.74062 150.519 8.15662 150.667 8.70062 150.667C9.23662 150.667 9.64462 150.519 9.92462 150.223C10.2126 149.927 10.4006 149.535 10.4886 149.047C10.5846 148.559 10.6326 147.955 10.6326 147.235ZM13.0798 150.787C14.0958 149.971 14.8918 149.303 15.4678 148.783C16.0438 148.255 16.5278 147.707 16.9198 147.139C17.3198 146.563 17.5198 145.999 17.5198 145.447C17.5198 144.927 17.3918 144.519 17.1358 144.223C16.8878 143.919 16.4838 143.767 15.9238 143.767C15.3798 143.767 14.9558 143.939 14.6518 144.283C14.3558 144.619 14.1958 145.071 14.1718 145.639H13.1158C13.1478 144.743 13.4198 144.051 13.9318 143.563C14.4438 143.075 15.1038 142.831 15.9118 142.831C16.7358 142.831 17.3878 143.059 17.8678 143.515C18.3558 143.971 18.5998 144.599 18.5998 145.399C18.5998 146.063 18.3998 146.711 17.9998 147.343C17.6078 147.967 17.1598 148.519 16.6558 148.999C16.1518 149.471 15.5078 150.023 14.7238 150.655H18.8518V151.567H13.0798V150.787Z" fill="black"/>
<path d="M131.964 147.235C131.964 145.859 132.188 144.787 132.636 144.019C133.084 143.243 133.868 142.855 134.988 142.855C136.1 142.855 136.88 143.243 137.328 144.019C137.776 144.787 138 145.859 138 147.235C138 148.635 137.776 149.723 137.328 150.499C136.88 151.275 136.1 151.663 134.988 151.663C133.868 151.663 133.084 151.275 132.636 150.499C132.188 149.723 131.964 148.635 131.964 147.235ZM136.92 147.235C136.92 146.539 136.872 145.951 136.776 145.471C136.688 144.983 136.5 144.591 136.212 144.295C135.932 143.999 135.524 143.851 134.988 143.851C134.444 143.851 134.028 143.999 133.74 144.295C133.46 144.591 133.272 144.983 133.176 145.471C133.088 145.951 133.044 146.539 133.044 147.235C133.044 147.955 133.088 148.559 133.176 149.047C133.272 149.535 133.46 149.927 133.74 150.223C134.028 150.519 134.444 150.667 134.988 150.667C135.524 150.667 135.932 150.519 136.212 150.223C136.5 149.927 136.688 149.535 136.776 149.047C136.872 148.559 136.92 147.955 136.92 147.235ZM139.475 145.171C139.531 144.435 139.815 143.859 140.327 143.443C140.839 143.027 141.503 142.819 142.319 142.819C142.863 142.819 143.331 142.919 143.723 143.119C144.123 143.311 144.423 143.575 144.623 143.911C144.831 144.247 144.935 144.627 144.935 145.051C144.935 145.547 144.791 145.975 144.503 146.335C144.223 146.695 143.855 146.927 143.399 147.031V147.091C143.919 147.219 144.331 147.471 144.635 147.847C144.939 148.223 145.091 148.715 145.091 149.323C145.091 149.779 144.987 150.191 144.779 150.559C144.571 150.919 144.259 151.203 143.843 151.411C143.427 151.619 142.927 151.723 142.343 151.723C141.495 151.723 140.799 151.503 140.255 151.063C139.711 150.615 139.407 149.983 139.343 149.167H140.399C140.455 149.647 140.651 150.039 140.987 150.343C141.323 150.647 141.771 150.799 142.331 150.799C142.891 150.799 143.315 150.655 143.603 150.367C143.899 150.071 144.047 149.691 144.047 149.227C144.047 148.627 143.847 148.195 143.447 147.931C143.047 147.667 142.443 147.535 141.635 147.535H141.359V146.623H141.647C142.383 146.615 142.939 146.495 143.315 146.263C143.691 146.023 143.879 145.655 143.879 145.159C143.879 144.735 143.739 144.395 143.459 144.139C143.187 143.883 142.795 143.755 142.283 143.755C141.787 143.755 141.387 143.883 141.083 144.139C140.779 144.395 140.599 144.739 140.543 145.171H139.475Z" fill="black"/>
<path d="M258.252 147.235C258.252 145.859 258.476 144.787 258.924 144.019C259.372 143.243 260.156 142.855 261.276 142.855C262.388 142.855 263.168 143.243 263.616 144.019C264.064 144.787 264.288 145.859 264.288 147.235C264.288 148.635 264.064 149.723 263.616 150.499C263.168 151.275 262.388 151.663 261.276 151.663C260.156 151.663 259.372 151.275 258.924 150.499C258.476 149.723 258.252 148.635 258.252 147.235ZM263.208 147.235C263.208 146.539 263.16 145.951 263.064 145.471C262.976 144.983 262.788 144.591 262.5 144.295C262.22 143.999 261.812 143.851 261.276 143.851C260.732 143.851 260.316 143.999 260.028 144.295C259.748 144.591 259.56 144.983 259.464 145.471C259.376 145.951 259.332 146.539 259.332 147.235C259.332 147.955 259.376 148.559 259.464 149.047C259.56 149.535 259.748 149.927 260.028 150.223C260.316 150.519 260.732 150.667 261.276 150.667C261.812 150.667 262.22 150.519 262.5 150.223C262.788 149.927 262.976 149.535 263.064 149.047C263.16 148.559 263.208 147.955 263.208 147.235ZM265.523 149.731V148.903L269.735 143.071H271.043V148.783H272.243V149.731H271.043V151.663H269.963V149.731H265.523ZM270.011 144.211L266.783 148.783H270.011V144.211Z" fill="black"/>
<path d="M384.539 147.235C384.539 145.859 384.763 144.787 385.211 144.019C385.659 143.243 386.443 142.855 387.563 142.855C388.675 142.855 389.455 143.243 389.903 144.019C390.351 144.787 390.575 145.859 390.575 147.235C390.575 148.635 390.351 149.723 389.903 150.499C389.455 151.275 388.675 151.663 387.563 151.663C386.443 151.663 385.659 151.275 385.211 150.499C384.763 149.723 384.539 148.635 384.539 147.235ZM389.495 147.235C389.495 146.539 389.447 145.951 389.351 145.471C389.263 144.983 389.075 144.591 388.787 144.295C388.507 143.999 388.099 143.851 387.563 143.851C387.019 143.851 386.603 143.999 386.315 144.295C386.035 144.591 385.847 144.983 385.751 145.471C385.663 145.951 385.619 146.539 385.619 147.235C385.619 147.955 385.663 148.559 385.751 149.047C385.847 149.535 386.035 149.927 386.315 150.223C386.603 150.519 387.019 150.667 387.563 150.667C388.099 150.667 388.507 150.519 388.787 150.223C389.075 149.927 389.263 149.535 389.351 149.047C389.447 148.559 389.495 147.955 389.495 147.235ZM397.606 143.935H393.394V146.671C393.578 146.415 393.85 146.207 394.21 146.047C394.57 145.879 394.958 145.795 395.374 145.795C396.038 145.795 396.578 145.935 396.994 146.215C397.41 146.487 397.706 146.843 397.882 147.283C398.066 147.715 398.158 148.175 398.158 148.663C398.158 149.239 398.05 149.755 397.834 150.211C397.618 150.667 397.286 151.027 396.838 151.291C396.398 151.555 395.85 151.687 395.194 151.687C394.354 151.687 393.674 151.471 393.154 151.039C392.634 150.607 392.318 150.031 392.206 149.311H393.274C393.378 149.767 393.598 150.123 393.934 150.379C394.27 150.635 394.694 150.763 395.206 150.763C395.838 150.763 396.314 150.575 396.634 150.199C396.954 149.815 397.114 149.311 397.114 148.687C397.114 148.063 396.954 147.583 396.634 147.247C396.314 146.903 395.842 146.731 395.218 146.731C394.794 146.731 394.422 146.835 394.102 147.043C393.79 147.243 393.562 147.519 393.418 147.871H392.386V142.975H397.606V143.935Z" fill="black"/>
<path d="M510.827 147.235C510.827 145.859 511.051 144.787 511.499 144.019C511.947 143.243 512.731 142.855 513.851 142.855C514.963 142.855 515.743 143.243 516.191 144.019C516.639 144.787 516.863 145.859 516.863 147.235C516.863 148.635 516.639 149.723 516.191 150.499C515.743 151.275 514.963 151.663 513.851 151.663C512.731 151.663 511.947 151.275 511.499 150.499C511.051 149.723 510.827 148.635 510.827 147.235ZM515.783 147.235C515.783 146.539 515.735 145.951 515.639 145.471C515.551 144.983 515.363 144.591 515.075 144.295C514.795 143.999 514.387 143.851 513.851 143.851C513.307 143.851 512.891 143.999 512.603 144.295C512.323 144.591 512.135 144.983 512.039 145.471C511.951 145.951 511.907 146.539 511.907 147.235C511.907 147.955 511.951 148.559 512.039 149.047C512.135 149.535 512.323 149.927 512.603 150.223C512.891 150.519 513.307 150.667 513.851 150.667C514.387 150.667 514.795 150.519 515.075 150.223C515.363 149.927 515.551 149.535 515.639 149.047C515.735 148.559 515.783 147.955 515.783 147.235ZM523.198 145.051C523.022 144.163 522.474 143.719 521.554 143.719C520.842 143.719 520.31 143.995 519.958 144.547C519.606 145.091 519.434 145.991 519.442 147.247C519.626 146.831 519.93 146.507 520.354 146.275C520.786 146.035 521.266 145.915 521.794 145.915C522.618 145.915 523.274 146.171 523.762 146.683C524.258 147.195 524.506 147.903 524.506 148.807C524.506 149.351 524.398 149.839 524.182 150.271C523.974 150.703 523.654 151.047 523.222 151.303C522.798 151.559 522.282 151.687 521.674 151.687C520.85 151.687 520.206 151.503 519.742 151.135C519.278 150.767 518.954 150.259 518.77 149.611C518.586 148.963 518.494 148.163 518.494 147.211C518.494 144.275 519.518 142.807 521.566 142.807C522.35 142.807 522.966 143.019 523.414 143.443C523.862 143.867 524.126 144.403 524.206 145.051H523.198ZM521.566 146.839C521.222 146.839 520.898 146.911 520.594 147.055C520.29 147.191 520.042 147.403 519.85 147.691C519.666 147.971 519.574 148.315 519.574 148.723C519.574 149.331 519.75 149.827 520.102 150.211C520.454 150.587 520.958 150.775 521.614 150.775C522.174 150.775 522.618 150.603 522.946 150.259C523.282 149.907 523.45 149.435 523.45 148.843C523.45 148.219 523.29 147.731 522.97 147.379C522.65 147.019 522.182 146.839 521.566 146.839Z" fill="black"/>
<path d="M637.114 147.235C637.114 145.859 637.338 144.787 637.786 144.019C638.234 143.243 639.018 142.855 640.138 142.855C641.25 142.855 642.03 143.243 642.478 144.019C642.926 144.787 643.15 145.859 643.15 147.235C643.15 148.635 642.926 149.723 642.478 150.499C642.03 151.275 641.25 151.663 640.138 151.663C639.018 151.663 638.234 151.275 637.786 150.499C637.338 149.723 637.114 148.635 637.114 147.235ZM642.07 147.235C642.07 146.539 642.022 145.951 641.926 145.471C641.838 144.983 641.65 144.591 641.362 144.295C641.082 143.999 640.674 143.851 640.138 143.851C639.594 143.851 639.178 143.999 638.89 144.295C638.61 144.591 638.422 144.983 638.326 145.471C638.238 145.951 638.194 146.539 638.194 147.235C638.194 147.955 638.238 148.559 638.326 149.047C638.422 149.535 638.61 149.927 638.89 150.223C639.178 150.519 639.594 150.667 640.138 150.667C640.674 150.667 641.082 150.519 641.362 150.223C641.65 149.927 641.838 149.535 641.926 149.047C642.022 148.559 642.07 147.955 642.07 147.235ZM649.989 143.839L646.653 151.663H645.549L648.933 143.947H644.301V143.011H649.989V143.839Z" fill="black"/>
<path d="M763.402 147.235C763.402 145.859 763.626 144.787 764.074 144.019C764.522 143.243 765.306 142.855 766.426 142.855C767.538 142.855 768.318 143.243 768.766 144.019C769.214 144.787 769.438 145.859 769.438 147.235C769.438 148.635 769.214 149.723 768.766 150.499C768.318 151.275 767.538 151.663 766.426 151.663C765.306 151.663 764.522 151.275 764.074 150.499C763.626 149.723 763.402 148.635 763.402 147.235ZM768.358 147.235C768.358 146.539 768.31 145.951 768.214 145.471C768.126 144.983 767.938 144.591 767.65 144.295C767.37 143.999 766.962 143.851 766.426 143.851C765.882 143.851 765.466 143.999 765.178 144.295C764.898 144.591 764.71 144.983 764.614 145.471C764.526 145.951 764.482 146.539 764.482 147.235C764.482 147.955 764.526 148.559 764.614 149.047C764.71 149.535 764.898 149.927 765.178 150.223C765.466 150.519 765.882 150.667 766.426 150.667C766.962 150.667 767.37 150.519 767.65 150.223C767.938 149.927 768.126 149.535 768.214 149.047C768.31 148.559 768.358 147.955 768.358 147.235ZM772.521 147.151C772.073 146.975 771.729 146.719 771.489 146.383C771.249 146.047 771.129 145.639 771.129 145.159C771.129 144.727 771.237 144.339 771.453 143.995C771.669 143.643 771.989 143.367 772.413 143.167C772.845 142.959 773.365 142.855 773.973 142.855C774.581 142.855 775.097 142.959 775.521 143.167C775.953 143.367 776.277 143.643 776.493 143.995C776.717 144.339 776.829 144.727 776.829 145.159C776.829 145.623 776.705 146.031 776.457 146.383C776.209 146.727 775.869 146.983 775.437 147.151C775.933 147.303 776.325 147.571 776.613 147.955C776.909 148.331 777.057 148.787 777.057 149.323C777.057 149.843 776.929 150.299 776.673 150.691C776.417 151.075 776.053 151.375 775.581 151.591C775.117 151.799 774.581 151.903 773.973 151.903C773.365 151.903 772.829 151.799 772.365 151.591C771.909 151.375 771.553 151.075 771.297 150.691C771.041 150.299 770.913 149.843 770.913 149.323C770.913 148.787 771.057 148.327 771.345 147.943C771.633 147.559 772.025 147.295 772.521 147.151ZM775.773 145.291C775.773 144.803 775.613 144.427 775.293 144.163C774.973 143.899 774.533 143.767 773.973 143.767C773.421 143.767 772.985 143.899 772.665 144.163C772.345 144.427 772.185 144.807 772.185 145.303C772.185 145.751 772.349 146.111 772.677 146.383C773.013 146.655 773.445 146.791 773.973 146.791C774.509 146.791 774.941 146.655 775.269 146.383C775.605 146.103 775.773 145.739 775.773 145.291ZM773.973 147.631C773.381 147.631 772.897 147.771 772.521 148.051C772.145 148.323 771.957 148.735 771.957 149.287C771.957 149.799 772.137 150.211 772.497 150.523C772.865 150.835 773.357 150.991 773.973 150.991C774.589 150.991 775.077 150.835 775.437 150.523C775.797 150.211 775.977 149.799 775.977 149.287C775.977 148.751 775.793 148.343 775.425 148.063C775.057 147.775 774.573 147.631 773.973 147.631Z" fill="black"/>
<path d="M5.67662 236.053C5.67662 234.677 5.90062 233.605 6.34862 232.837C6.79662 232.061 7.58062 231.673 8.70062 231.673C9.81262 231.673 10.5926 232.061 11.0406 232.837C11.4886 233.605 11.7126 234.677 11.7126 236.053C11.7126 237.453 11.4886 238.541 11.0406 239.317C10.5926 240.093 9.81262 240.481 8.70062 240.481C7.58062 240.481 6.79662 240.093 6.34862 239.317C5.90062 238.541 5.67662 237.453 5.67662 236.053ZM10.6326 236.053C10.6326 235.357 10.5846 234.769 10.4886 234.289C10.4006 233.801 10.2126 233.409 9.92462 233.113C9.64462 232.817 9.23662 232.669 8.70062 232.669C8.15662 232.669 7.74062 232.817 7.45262 233.113C7.17262 233.409 6.98462 233.801 6.88862 234.289C6.80062 234.769 6.75662 235.357 6.75662 236.053C6.75662 236.773 6.80062 237.377 6.88862 237.865C6.98462 238.353 7.17262 238.745 7.45262 239.041C7.74062 239.337 8.15662 239.485 8.70062 239.485C9.23662 239.485 9.64462 239.337 9.92462 239.041C10.2126 238.745 10.4006 238.353 10.4886 237.865C10.5846 237.377 10.6326 236.773 10.6326 236.053ZM14.6158 238.153C14.6958 238.609 14.8798 238.961 15.1678 239.209C15.4638 239.457 15.8598 239.581 16.3558 239.581C17.0198 239.581 17.5078 239.321 17.8198 238.801C18.1398 238.281 18.2918 237.405 18.2758 236.173C18.1078 236.533 17.8278 236.817 17.4358 237.025C17.0438 237.225 16.6078 237.325 16.1278 237.325C15.5918 237.325 15.1118 237.217 14.6878 237.001C14.2718 236.777 13.9438 236.453 13.7038 236.029C13.4638 235.605 13.3438 235.093 13.3438 234.493C13.3438 233.637 13.5918 232.949 14.0878 232.429C14.5838 231.901 15.2878 231.637 16.1998 231.637C17.3198 231.637 18.1038 232.001 18.5518 232.729C19.0078 233.457 19.2358 234.541 19.2358 235.981C19.2358 236.989 19.1438 237.821 18.9598 238.477C18.7838 239.133 18.4798 239.633 18.0478 239.977C17.6238 240.321 17.0398 240.493 16.2958 240.493C15.4798 240.493 14.8438 240.273 14.3878 239.833C13.9318 239.393 13.6718 238.833 13.6078 238.153H14.6158ZM16.3078 236.401C16.8438 236.401 17.2838 236.237 17.6278 235.909C17.9718 235.573 18.1438 235.121 18.1438 234.553C18.1438 233.953 17.9758 233.469 17.6398 233.101C17.3038 232.733 16.8318 232.549 16.2238 232.549C15.6638 232.549 15.2158 232.725 14.8798 233.077C14.5518 233.429 14.3878 233.893 14.3878 234.469C14.3878 235.053 14.5518 235.521 14.8798 235.873C15.2078 236.225 15.6838 236.401 16.3078 236.401Z" fill="black"/>
<path d="M131.676 232.801V231.805H133.932V240.481H132.828V232.801H131.676ZM135.807 236.053C135.807 234.677 136.031 233.605 136.479 232.837C136.927 232.061 137.711 231.673 138.831 231.673C139.943 231.673 140.723 232.061 141.171 232.837C141.619 233.605 141.843 234.677 141.843 236.053C141.843 237.453 141.619 238.541 141.171 239.317C140.723 240.093 139.943 240.481 138.831 240.481C137.711 240.481 136.927 240.093 136.479 239.317C136.031 238.541 135.807 237.453 135.807 236.053ZM140.763 236.053C140.763 235.357 140.715 234.769 140.619 234.289C140.531 233.801 140.343 233.409 140.055 233.113C139.775 232.817 139.367 232.669 138.831 232.669C138.287 232.669 137.871 232.817 137.583 233.113C137.303 233.409 137.115 233.801 137.019 234.289C136.931 234.769 136.887 235.357 136.887 236.053C136.887 236.773 136.931 237.377 137.019 237.865C137.115 238.353 137.303 238.745 137.583 239.041C137.871 239.337 138.287 239.485 138.831 239.485C139.367 239.485 139.775 239.337 140.055 239.041C140.343 238.745 140.531 238.353 140.619 237.865C140.715 237.377 140.763 236.773 140.763 236.053Z" fill="black"/>
<path d="M257.964 232.801V231.805H260.22V240.481H259.116V232.801H257.964ZM261.808 232.801V231.805H264.064V240.481H262.96V232.801H261.808Z" fill="black"/>
<path d="M384.251 232.801V231.805H386.507V240.481H385.403V232.801H384.251ZM388.251 239.605C389.267 238.789 390.063 238.121 390.639 237.601C391.215 237.073 391.699 236.525 392.091 235.957C392.491 235.381 392.691 234.817 392.691 234.265C392.691 233.745 392.563 233.337 392.307 233.041C392.059 232.737 391.655 232.585 391.095 232.585C390.551 232.585 390.127 232.757 389.823 233.101C389.527 233.437 389.367 233.889 389.343 234.457H388.287C388.319 233.561 388.591 232.869 389.103 232.381C389.615 231.893 390.275 231.649 391.083 231.649C391.907 231.649 392.559 231.877 393.039 232.333C393.527 232.789 393.771 233.417 393.771 234.217C393.771 234.881 393.571 235.529 393.171 236.161C392.779 236.785 392.331 237.337 391.827 237.817C391.323 238.289 390.679 238.841 389.895 239.473H394.023V240.385H388.251V239.605Z" fill="black"/>
<path d="M510.539 232.801V231.805H512.795V240.481H511.691V232.801H510.539ZM514.647 233.989C514.703 233.253 514.987 232.677 515.499 232.261C516.011 231.845 516.675 231.637 517.491 231.637C518.035 231.637 518.503 231.737 518.895 231.937C519.295 232.129 519.595 232.393 519.795 232.729C520.003 233.065 520.107 233.445 520.107 233.869C520.107 234.365 519.963 234.793 519.675 235.153C519.395 235.513 519.027 235.745 518.571 235.849V235.909C519.091 236.037 519.503 236.289 519.807 236.665C520.111 237.041 520.263 237.533 520.263 238.141C520.263 238.597 520.159 239.009 519.951 239.377C519.743 239.737 519.431 240.021 519.015 240.229C518.599 240.437 518.099 240.541 517.515 240.541C516.667 240.541 515.971 240.321 515.427 239.881C514.883 239.433 514.579 238.801 514.515 237.985H515.571C515.627 238.465 515.823 238.857 516.159 239.161C516.495 239.465 516.943 239.617 517.503 239.617C518.063 239.617 518.487 239.473 518.775 239.185C519.071 238.889 519.219 238.509 519.219 238.045C519.219 237.445 519.019 237.013 518.619 236.749C518.219 236.485 517.615 236.353 516.807 236.353H516.531V235.441H516.819C517.555 235.433 518.111 235.313 518.487 235.081C518.863 234.841 519.051 234.473 519.051 233.977C519.051 233.553 518.911 233.213 518.631 232.957C518.359 232.701 517.967 232.573 517.455 232.573C516.959 232.573 516.559 232.701 516.255 232.957C515.951 233.213 515.771 233.557 515.715 233.989H514.647Z" fill="black"/>
<path d="M636.826 232.801V231.805H639.082V240.481H637.978V232.801H636.826ZM640.694 238.549V237.721L644.906 231.889H646.214V237.601H647.414V238.549H646.214V240.481H645.134V238.549H640.694ZM645.182 233.029L641.954 237.601H645.182V233.029Z" fill="black"/>
<path d="M763.114 232.801V231.805H765.37V240.481H764.266V232.801H763.114ZM772.778 232.753H768.566V235.489C768.75 235.233 769.022 235.025 769.382 234.865C769.742 234.697 770.13 234.613 770.546 234.613C771.21 234.613 771.75 234.753 772.166 235.033C772.582 235.305 772.878 235.661 773.054 236.101C773.238 236.533 773.33 236.993 773.33 237.481C773.33 238.057 773.222 238.573 773.006 239.029C772.79 239.485 772.458 239.845 772.01 240.109C771.57 240.373 771.022 240.505 770.366 240.505C769.526 240.505 768.846 240.289 768.326 239.857C767.806 239.425 767.49 238.849 767.378 238.129H768.446C768.55 238.585 768.77 238.941 769.106 239.197C769.442 239.453 769.866 239.581 770.378 239.581C771.01 239.581 771.486 239.393 771.806 239.017C772.126 238.633 772.286 238.129 772.286 237.505C772.286 236.881 772.126 236.401 771.806 236.065C771.486 235.721 771.014 235.549 770.39 235.549C769.966 235.549 769.594 235.653 769.274 235.861C768.962 236.061 768.734 236.337 768.59 236.689H767.558V231.793H772.778V232.753Z" fill="black"/>
<path d="M5.38862 321.619V320.623H7.64462V329.299H6.54062V321.619H5.38862ZM14.3564 322.687C14.1804 321.799 13.6324 321.355 12.7124 321.355C12.0004 321.355 11.4684 321.631 11.1164 322.183C10.7644 322.727 10.5924 323.627 10.6004 324.883C10.7844 324.467 11.0884 324.143 11.5124 323.911C11.9444 323.671 12.4244 323.551 12.9524 323.551C13.7764 323.551 14.4324 323.807 14.9204 324.319C15.4164 324.831 15.6644 325.539 15.6644 326.443C15.6644 326.987 15.5564 327.475 15.3404 327.907C15.1324 328.339 14.8124 328.683 14.3804 328.939C13.9564 329.195 13.4404 329.323 12.8324 329.323C12.0084 329.323 11.3644 329.139 10.9004 328.771C10.4364 328.403 10.1124 327.895 9.92837 327.247C9.74437 326.599 9.65237 325.799 9.65237 324.847C9.65237 321.911 10.6764 320.443 12.7244 320.443C13.5084 320.443 14.1244 320.655 14.5724 321.079C15.0204 321.503 15.2844 322.039 15.3644 322.687H14.3564ZM12.7244 324.475C12.3804 324.475 12.0564 324.547 11.7524 324.691C11.4484 324.827 11.2004 325.039 11.0084 325.327C10.8244 325.607 10.7324 325.951 10.7324 326.359C10.7324 326.967 10.9084 327.463 11.2604 327.847C11.6124 328.223 12.1164 328.411 12.7724 328.411C13.3324 328.411 13.7764 328.239 14.1044 327.895C14.4404 327.543 14.6084 327.071 14.6084 326.479C14.6084 325.855 14.4484 325.367 14.1284 325.015C13.8084 324.655 13.3404 324.475 12.7244 324.475Z" fill="black"/>
<path d="M131.676 321.619V320.623H133.932V329.299H132.828V321.619H131.676ZM141.147 321.475L137.811 329.299H136.707L140.091 321.583H135.459V320.647H141.147V321.475Z" fill="black"/>
<path d="M257.964 321.619V320.623H260.22V329.299H259.116V321.619H257.964ZM263.68 324.787C263.232 324.611 262.888 324.355 262.648 324.019C262.408 323.683 262.288 323.275 262.288 322.795C262.288 322.363 262.396 321.975 262.612 321.631C262.828 321.279 263.148 321.003 263.572 320.803C264.004 320.595 264.524 320.491 265.132 320.491C265.74 320.491 266.256 320.595 266.68 320.803C267.112 321.003 267.436 321.279 267.652 321.631C267.876 321.975 267.988 322.363 267.988 322.795C267.988 323.259 267.864 323.667 267.616 324.019C267.368 324.363 267.028 324.619 266.596 324.787C267.092 324.939 267.484 325.207 267.772 325.591C268.068 325.967 268.216 326.423 268.216 326.959C268.216 327.479 268.088 327.935 267.832 328.327C267.576 328.711 267.212 329.011 266.74 329.227C266.276 329.435 265.74 329.539 265.132 329.539C264.524 329.539 263.988 329.435 263.524 329.227C263.068 329.011 262.712 328.711 262.456 328.327C262.2 327.935 262.072 327.479 262.072 326.959C262.072 326.423 262.216 325.963 262.504 325.579C262.792 325.195 263.184 324.931 263.68 324.787ZM266.932 322.927C266.932 322.439 266.772 322.063 266.452 321.799C266.132 321.535 265.692 321.403 265.132 321.403C264.58 321.403 264.144 321.535 263.824 321.799C263.504 322.063 263.344 322.443 263.344 322.939C263.344 323.387 263.508 323.747 263.836 324.019C264.172 324.291 264.604 324.427 265.132 324.427C265.668 324.427 266.1 324.291 266.428 324.019C266.764 323.739 266.932 323.375 266.932 322.927ZM265.132 325.267C264.54 325.267 264.056 325.407 263.68 325.687C263.304 325.959 263.116 326.371 263.116 326.923C263.116 327.435 263.296 327.847 263.656 328.159C264.024 328.471 264.516 328.627 265.132 328.627C265.748 328.627 266.236 328.471 266.596 328.159C266.956 327.847 267.136 327.435 267.136 326.923C267.136 326.387 266.952 325.979 266.584 325.699C266.216 325.411 265.732 325.267 265.132 325.267Z" fill="black"/>
<path d="M384.119 322.447V320.539H387.443V329.299H385.307V322.447H384.119ZM391.055 326.731C391.175 327.363 391.543 327.679 392.159 327.679C392.583 327.679 392.883 327.491 393.059 327.115C393.235 326.739 393.323 326.127 393.323 325.279C393.147 325.527 392.907 325.719 392.603 325.855C392.299 325.991 391.959 326.059 391.583 326.059C391.071 326.059 390.615 325.955 390.215 325.747C389.815 325.531 389.499 325.215 389.267 324.799C389.043 324.375 388.931 323.863 388.931 323.263C388.931 322.671 389.051 322.155 389.291 321.715C389.539 321.275 389.887 320.935 390.335 320.695C390.791 320.455 391.327 320.335 391.943 320.335C393.127 320.335 393.955 320.703 394.427 321.439C394.899 322.175 395.135 323.259 395.135 324.691C395.135 325.731 395.039 326.591 394.847 327.271C394.663 327.943 394.347 328.455 393.899 328.807C393.459 329.159 392.855 329.335 392.087 329.335C391.479 329.335 390.959 329.215 390.527 328.975C390.103 328.735 389.775 328.419 389.543 328.027C389.319 327.635 389.191 327.203 389.159 326.731H391.055ZM392.051 324.439C392.387 324.439 392.655 324.339 392.855 324.139C393.055 323.931 393.155 323.651 393.155 323.299C393.155 322.915 393.051 322.619 392.843 322.411C392.635 322.203 392.355 322.099 392.003 322.099C391.651 322.099 391.371 322.207 391.163 322.423C390.963 322.631 390.863 322.919 390.863 323.287C390.863 323.631 390.963 323.911 391.163 324.127C391.371 324.335 391.667 324.439 392.051 324.439Z" fill="black"/>
<path d="M510.695 328.423C511.711 327.607 512.507 326.939 513.083 326.419C513.659 325.891 514.143 325.343 514.535 324.775C514.935 324.199 515.135 323.635 515.135 323.083C515.135 322.563 515.007 322.155 514.751 321.859C514.503 321.555 514.099 321.403 513.539 321.403C512.995 321.403 512.571 321.575 512.267 321.919C511.971 322.255 511.811 322.707 511.787 323.275H510.731C510.763 322.379 511.035 321.687 511.547 321.199C512.059 320.711 512.719 320.467 513.527 320.467C514.351 320.467 515.003 320.695 515.483 321.151C515.971 321.607 516.215 322.235 516.215 323.035C516.215 323.699 516.015 324.347 515.615 324.979C515.223 325.603 514.775 326.155 514.271 326.635C513.767 327.107 513.123 327.659 512.339 328.291H516.467V329.203H510.695V328.423ZM517.729 324.871C517.729 323.495 517.953 322.423 518.401 321.655C518.849 320.879 519.633 320.491 520.753 320.491C521.865 320.491 522.645 320.879 523.093 321.655C523.541 322.423 523.765 323.495 523.765 324.871C523.765 326.271 523.541 327.359 523.093 328.135C522.645 328.911 521.865 329.299 520.753 329.299C519.633 329.299 518.849 328.911 518.401 328.135C517.953 327.359 517.729 326.271 517.729 324.871ZM522.685 324.871C522.685 324.175 522.637 323.587 522.541 323.107C522.453 322.619 522.265 322.227 521.977 321.931C521.697 321.635 521.289 321.487 520.753 321.487C520.209 321.487 519.793 321.635 519.505 321.931C519.225 322.227 519.037 322.619 518.941 323.107C518.853 323.587 518.809 324.175 518.809 324.871C518.809 325.591 518.853 326.195 518.941 326.683C519.037 327.171 519.225 327.563 519.505 327.859C519.793 328.155 520.209 328.303 520.753 328.303C521.289 328.303 521.697 328.155 521.977 327.859C522.265 327.563 522.453 327.171 522.541 326.683C522.637 326.195 522.685 325.591 522.685 324.871Z" fill="black"/>
<path d="M636.982 328.423C637.998 327.607 638.794 326.939 639.37 326.419C639.946 325.891 640.43 325.343 640.822 324.775C641.222 324.199 641.422 323.635 641.422 323.083C641.422 322.563 641.294 322.155 641.038 321.859C640.79 321.555 640.386 321.403 639.826 321.403C639.282 321.403 638.858 321.575 638.554 321.919C638.258 322.255 638.098 322.707 638.074 323.275H637.018C637.05 322.379 637.322 321.687 637.834 321.199C638.346 320.711 639.006 320.467 639.814 320.467C640.638 320.467 641.29 320.695 641.77 321.151C642.258 321.607 642.502 322.235 642.502 323.035C642.502 323.699 642.302 324.347 641.902 324.979C641.51 325.603 641.062 326.155 640.558 326.635C640.054 327.107 639.41 327.659 638.626 328.291H642.754V329.203H636.982V328.423ZM643.728 321.619V320.623H645.984V329.299H644.88V321.619H643.728Z" fill="black"/>
<path d="M763.27 328.423C764.286 327.607 765.082 326.939 765.658 326.419C766.234 325.891 766.718 325.343 767.11 324.775C767.51 324.199 767.71 323.635 767.71 323.083C767.71 322.563 767.582 322.155 767.326 321.859C767.078 321.555 766.674 321.403 766.114 321.403C765.57 321.403 765.146 321.575 764.842 321.919C764.546 322.255 764.386 322.707 764.362 323.275H763.306C763.338 322.379 763.61 321.687 764.122 321.199C764.634 320.711 765.294 320.467 766.102 320.467C766.926 320.467 767.578 320.695 768.058 321.151C768.546 321.607 768.79 322.235 768.79 323.035C768.79 323.699 768.59 324.347 768.19 324.979C767.798 325.603 767.35 326.155 766.846 326.635C766.342 327.107 765.698 327.659 764.914 328.291H769.042V329.203H763.27V328.423ZM770.173 328.423C771.189 327.607 771.985 326.939 772.561 326.419C773.137 325.891 773.621 325.343 774.013 324.775C774.413 324.199 774.613 323.635 774.613 323.083C774.613 322.563 774.485 322.155 774.229 321.859C773.981 321.555 773.577 321.403 773.017 321.403C772.473 321.403 772.049 321.575 771.745 321.919C771.449 322.255 771.289 322.707 771.265 323.275H770.209C770.241 322.379 770.513 321.687 771.025 321.199C771.537 320.711 772.197 320.467 773.005 320.467C773.829 320.467 774.481 320.695 774.961 321.151C775.449 321.607 775.693 322.235 775.693 323.035C775.693 323.699 775.493 324.347 775.093 324.979C774.701 325.603 774.253 326.155 773.749 326.635C773.245 327.107 772.601 327.659 771.817 328.291H775.945V329.203H770.173V328.423Z" fill="black"/>
<path d="M5.54462 417.241C6.56062 416.425 7.35662 415.757 7.93262 415.237C8.50862 414.709 8.99262 414.161 9.38462 413.593C9.78462 413.017 9.98462 412.453 9.98462 411.901C9.98462 411.381 9.85662 410.973 9.60062 410.677C9.35262 410.373 8.94862 410.221 8.38862 410.221C7.84462 410.221 7.42062 410.393 7.11662 410.737C6.82062 411.073 6.66062 411.525 6.63662 412.093H5.58062C5.61262 411.197 5.88462 410.505 6.39662 410.017C6.90862 409.529 7.56862 409.285 8.37662 409.285C9.20062 409.285 9.85262 409.513 10.3326 409.969C10.8206 410.425 11.0646 411.053 11.0646 411.853C11.0646 412.517 10.8646 413.165 10.4646 413.797C10.0726 414.421 9.62462 414.973 9.12062 415.453C8.61662 415.925 7.97262 416.477 7.18862 417.109H11.3166V418.021H5.54462V417.241ZM12.555 411.625C12.611 410.889 12.895 410.313 13.407 409.897C13.919 409.481 14.583 409.273 15.399 409.273C15.943 409.273 16.411 409.373 16.803 409.573C17.203 409.765 17.503 410.029 17.703 410.365C17.911 410.701 18.015 411.081 18.015 411.505C18.015 412.001 17.871 412.429 17.583 412.789C17.303 413.149 16.935 413.381 16.479 413.485V413.545C16.999 413.673 17.411 413.925 17.715 414.301C18.019 414.677 18.171 415.169 18.171 415.777C18.171 416.233 18.067 416.645 17.859 417.013C17.651 417.373 17.339 417.657 16.923 417.865C16.507 418.073 16.007 418.177 15.423 418.177C14.575 418.177 13.879 417.957 13.335 417.517C12.791 417.069 12.487 416.437 12.423 415.621H13.479C13.535 416.101 13.731 416.493 14.067 416.797C14.403 417.101 14.851 417.253 15.411 417.253C15.971 417.253 16.395 417.109 16.683 416.821C16.979 416.525 17.127 416.145 17.127 415.681C17.127 415.081 16.927 414.649 16.527 414.385C16.127 414.121 15.523 413.989 14.715 413.989H14.439V413.077H14.727C15.463 413.069 16.019 412.949 16.395 412.717C16.771 412.477 16.959 412.109 16.959 411.613C16.959 411.189 16.819 410.849 16.539 410.593C16.267 410.337 15.875 410.209 15.363 410.209C14.867 410.209 14.467 410.337 14.163 410.593C13.859 410.849 13.679 411.193 13.623 411.625H12.555Z" fill="black"/>
<path d="M131.832 417.241C132.848 416.425 133.644 415.757 134.22 415.237C134.796 414.709 135.28 414.161 135.672 413.593C136.072 413.017 136.272 412.453 136.272 411.901C136.272 411.381 136.144 410.973 135.888 410.677C135.64 410.373 135.236 410.221 134.676 410.221C134.132 410.221 133.708 410.393 133.404 410.737C133.108 411.073 132.948 411.525 132.924 412.093H131.868C131.9 411.197 132.172 410.505 132.684 410.017C133.196 409.529 133.856 409.285 134.664 409.285C135.488 409.285 136.14 409.513 136.62 409.969C137.108 410.425 137.352 411.053 137.352 411.853C137.352 412.517 137.152 413.165 136.752 413.797C136.36 414.421 135.912 414.973 135.408 415.453C134.904 415.925 134.26 416.477 133.476 417.109H137.604V418.021H131.832V417.241ZM138.602 416.185V415.357L142.814 409.525H144.122V415.237H145.322V416.185H144.122V418.117H143.042V416.185H138.602ZM143.09 410.665L139.862 415.237H143.09V410.665Z" fill="black"/>
<path d="M258.12 417.241C259.136 416.425 259.932 415.757 260.508 415.237C261.084 414.709 261.568 414.161 261.96 413.593C262.36 413.017 262.56 412.453 262.56 411.901C262.56 411.381 262.432 410.973 262.176 410.677C261.928 410.373 261.524 410.221 260.964 410.221C260.42 410.221 259.996 410.393 259.692 410.737C259.396 411.073 259.236 411.525 259.212 412.093H258.156C258.188 411.197 258.46 410.505 258.972 410.017C259.484 409.529 260.144 409.285 260.952 409.285C261.776 409.285 262.428 409.513 262.908 409.969C263.396 410.425 263.64 411.053 263.64 411.853C263.64 412.517 263.44 413.165 263.04 413.797C262.648 414.421 262.2 414.973 261.696 415.453C261.192 415.925 260.548 416.477 259.764 417.109H263.892V418.021H258.12V417.241ZM270.686 410.389H266.474V413.125C266.658 412.869 266.93 412.661 267.29 412.501C267.65 412.333 268.038 412.249 268.454 412.249C269.118 412.249 269.658 412.389 270.074 412.669C270.49 412.941 270.786 413.297 270.962 413.737C271.146 414.169 271.238 414.629 271.238 415.117C271.238 415.693 271.13 416.209 270.914 416.665C270.698 417.121 270.366 417.481 269.918 417.745C269.478 418.009 268.93 418.141 268.274 418.141C267.434 418.141 266.754 417.925 266.234 417.493C265.714 417.061 265.398 416.485 265.286 415.765H266.354C266.458 416.221 266.678 416.577 267.014 416.833C267.35 417.089 267.774 417.217 268.286 417.217C268.918 417.217 269.394 417.029 269.714 416.653C270.034 416.269 270.194 415.765 270.194 415.141C270.194 414.517 270.034 414.037 269.714 413.701C269.394 413.357 268.922 413.185 268.298 413.185C267.874 413.185 267.502 413.289 267.182 413.497C266.87 413.697 266.642 413.973 266.498 414.325H265.466V409.429H270.686V410.389Z" fill="black"/>
<path d="M384.407 417.241C385.423 416.425 386.219 415.757 386.795 415.237C387.371 414.709 387.855 414.161 388.247 413.593C388.647 413.017 388.847 412.453 388.847 411.901C388.847 411.381 388.719 410.973 388.463 410.677C388.215 410.373 387.811 410.221 387.251 410.221C386.707 410.221 386.283 410.393 385.979 410.737C385.683 411.073 385.523 411.525 385.499 412.093H384.443C384.475 411.197 384.747 410.505 385.259 410.017C385.771 409.529 386.431 409.285 387.239 409.285C388.063 409.285 388.715 409.513 389.195 409.969C389.683 410.425 389.927 411.053 389.927 411.853C389.927 412.517 389.727 413.165 389.327 413.797C388.935 414.421 388.487 414.973 387.983 415.453C387.479 415.925 386.835 416.477 386.051 417.109H390.179V418.021H384.407V417.241ZM396.277 411.505C396.101 410.617 395.553 410.173 394.633 410.173C393.921 410.173 393.389 410.449 393.037 411.001C392.685 411.545 392.513 412.445 392.521 413.701C392.705 413.285 393.009 412.961 393.433 412.729C393.865 412.489 394.345 412.369 394.873 412.369C395.697 412.369 396.353 412.625 396.841 413.137C397.337 413.649 397.585 414.357 397.585 415.261C397.585 415.805 397.477 416.293 397.261 416.725C397.053 417.157 396.733 417.501 396.301 417.757C395.877 418.013 395.361 418.141 394.753 418.141C393.929 418.141 393.285 417.957 392.821 417.589C392.357 417.221 392.033 416.713 391.849 416.065C391.665 415.417 391.573 414.617 391.573 413.665C391.573 410.729 392.597 409.261 394.645 409.261C395.429 409.261 396.045 409.473 396.493 409.897C396.941 410.321 397.205 410.857 397.285 411.505H396.277ZM394.645 413.293C394.301 413.293 393.977 413.365 393.673 413.509C393.369 413.645 393.121 413.857 392.929 414.145C392.745 414.425 392.653 414.769 392.653 415.177C392.653 415.785 392.829 416.281 393.181 416.665C393.533 417.041 394.037 417.229 394.693 417.229C395.253 417.229 395.697 417.057 396.025 416.713C396.361 416.361 396.529 415.889 396.529 415.297C396.529 414.673 396.369 414.185 396.049 413.833C395.729 413.473 395.261 413.293 394.645 413.293Z" fill="black"/>
<path d="M510.695 417.241C511.711 416.425 512.507 415.757 513.083 415.237C513.659 414.709 514.143 414.161 514.535 413.593C514.935 413.017 515.135 412.453 515.135 411.901C515.135 411.381 515.007 410.973 514.751 410.677C514.503 410.373 514.099 410.221 513.539 410.221C512.995 410.221 512.571 410.393 512.267 410.737C511.971 411.073 511.811 411.525 511.787 412.093H510.731C510.763 411.197 511.035 410.505 511.547 410.017C512.059 409.529 512.719 409.285 513.527 409.285C514.351 409.285 515.003 409.513 515.483 409.969C515.971 410.425 516.215 411.053 516.215 411.853C516.215 412.517 516.015 413.165 515.615 413.797C515.223 414.421 514.775 414.973 514.271 415.453C513.767 415.925 513.123 416.477 512.339 417.109H516.467V418.021H510.695V417.241ZM523.069 410.293L519.733 418.117H518.629L522.013 410.401H517.381V409.465H523.069V410.293Z" fill="black"/>
<path d="M636.982 417.241C637.998 416.425 638.794 415.757 639.37 415.237C639.946 414.709 640.43 414.161 640.822 413.593C641.222 413.017 641.422 412.453 641.422 411.901C641.422 411.381 641.294 410.973 641.038 410.677C640.79 410.373 640.386 410.221 639.826 410.221C639.282 410.221 638.858 410.393 638.554 410.737C638.258 411.073 638.098 411.525 638.074 412.093H637.018C637.05 411.197 637.322 410.505 637.834 410.017C638.346 409.529 639.006 409.285 639.814 409.285C640.638 409.285 641.29 409.513 641.77 409.969C642.258 410.425 642.502 411.053 642.502 411.853C642.502 412.517 642.302 413.165 641.902 413.797C641.51 414.421 641.062 414.973 640.558 415.453C640.054 415.925 639.41 416.477 638.626 417.109H642.754V418.021H636.982V417.241ZM645.6 413.605C645.152 413.429 644.808 413.173 644.568 412.837C644.328 412.501 644.208 412.093 644.208 411.613C644.208 411.181 644.316 410.793 644.532 410.449C644.748 410.097 645.068 409.821 645.492 409.621C645.924 409.413 646.444 409.309 647.052 409.309C647.66 409.309 648.176 409.413 648.6 409.621C649.032 409.821 649.356 410.097 649.572 410.449C649.796 410.793 649.908 411.181 649.908 411.613C649.908 412.077 649.784 412.485 649.536 412.837C649.288 413.181 648.948 413.437 648.516 413.605C649.012 413.757 649.404 414.025 649.692 414.409C649.988 414.785 650.136 415.241 650.136 415.777C650.136 416.297 650.008 416.753 649.752 417.145C649.496 417.529 649.132 417.829 648.66 418.045C648.196 418.253 647.66 418.357 647.052 418.357C646.444 418.357 645.908 418.253 645.444 418.045C644.988 417.829 644.632 417.529 644.376 417.145C644.12 416.753 643.992 416.297 643.992 415.777C643.992 415.241 644.136 414.781 644.424 414.397C644.712 414.013 645.104 413.749 645.6 413.605ZM648.852 411.745C648.852 411.257 648.692 410.881 648.372 410.617C648.052 410.353 647.612 410.221 647.052 410.221C646.5 410.221 646.064 410.353 645.744 410.617C645.424 410.881 645.264 411.261 645.264 411.757C645.264 412.205 645.428 412.565 645.756 412.837C646.092 413.109 646.524 413.245 647.052 413.245C647.588 413.245 648.02 413.109 648.348 412.837C648.684 412.557 648.852 412.193 648.852 411.745ZM647.052 414.085C646.46 414.085 645.976 414.225 645.6 414.505C645.224 414.777 645.036 415.189 645.036 415.741C645.036 416.253 645.216 416.665 645.576 416.977C645.944 417.289 646.436 417.445 647.052 417.445C647.668 417.445 648.156 417.289 648.516 416.977C648.876 416.665 649.056 416.253 649.056 415.741C649.056 415.205 648.872 414.797 648.504 414.517C648.136 414.229 647.652 414.085 647.052 414.085Z" fill="black"/>
<path d="M763.27 417.241C764.286 416.425 765.082 415.757 765.658 415.237C766.234 414.709 766.718 414.161 767.11 413.593C767.51 413.017 767.71 412.453 767.71 411.901C767.71 411.381 767.582 410.973 767.326 410.677C767.078 410.373 766.674 410.221 766.114 410.221C765.57 410.221 765.146 410.393 764.842 410.737C764.546 411.073 764.386 411.525 764.362 412.093H763.306C763.338 411.197 763.61 410.505 764.122 410.017C764.634 409.529 765.294 409.285 766.102 409.285C766.926 409.285 767.578 409.513 768.058 409.969C768.546 410.425 768.79 411.053 768.79 411.853C768.79 412.517 768.59 413.165 768.19 413.797C767.798 414.421 767.35 414.973 766.846 415.453C766.342 415.925 765.698 416.477 764.914 417.109H769.042V418.021H763.27V417.241ZM771.709 415.789C771.789 416.245 771.973 416.597 772.261 416.845C772.557 417.093 772.953 417.217 773.449 417.217C774.113 417.217 774.601 416.957 774.913 416.437C775.233 415.917 775.385 415.041 775.369 413.809C775.201 414.169 774.921 414.453 774.529 414.661C774.137 414.861 773.701 414.961 773.221 414.961C772.685 414.961 772.205 414.853 771.781 414.637C771.365 414.413 771.037 414.089 770.797 413.665C770.557 413.241 770.437 412.729 770.437 412.129C770.437 411.273 770.685 410.585 771.181 410.065C771.677 409.537 772.381 409.273 773.293 409.273C774.413 409.273 775.197 409.637 775.645 410.365C776.101 411.093 776.329 412.177 776.329 413.617C776.329 414.625 776.237 415.457 776.053 416.113C775.877 416.769 775.573 417.269 775.141 417.613C774.717 417.957 774.133 418.129 773.389 418.129C772.573 418.129 771.937 417.909 771.481 417.469C771.025 417.029 770.765 416.469 770.701 415.789H771.709ZM773.401 414.037C773.937 414.037 774.377 413.873 774.721 413.545C775.065 413.209 775.237 412.757 775.237 412.189C775.237 411.589 775.069 411.105 774.733 410.737C774.397 410.369 773.925 410.185 773.317 410.185C772.757 410.185 772.309 410.361 771.973 410.713C771.645 411.065 771.481 411.529 771.481 412.105C771.481 412.689 771.645 413.157 771.973 413.509C772.301 413.861 772.777 414.037 773.401 414.037Z" fill="black"/>
<line x1="0.5" y1="1" x2="0.5" y2="495" stroke="black"/>
<line x1="126.5" y1="1" x2="126.5" y2="495" stroke="black"/>
<line x1="252.5" y1="1" x2="252.5" y2="495" stroke="black"/>
<line x1="378.5" y1="1" x2="378.5" y2="495" stroke="black"/>
<line x1="630.5" y1="1" x2="630.5" y2="495" stroke="black"/>
<line x1="504.5" y1="1" x2="504.5" y2="495" stroke="black"/>
<line x1="756.5" y1="1" x2="756.5" y2="495" stroke="black"/>
<line x1="882.5" y1="1" x2="882.5" y2="495" stroke="black"/>
<line y1="44.5" x2="883" y2="44.5" stroke="black"/>
<line y1="134.5" x2="883" y2="134.5" stroke="black"/>
<line y1="224.5" x2="883" y2="224.5" stroke="black"/>
<line y1="314.5" x2="883" y2="314.5" stroke="black"/>
<line y1="404.5" x2="883" y2="404.5" stroke="black"/>
<line y1="494.5" x2="883" y2="494.5" stroke="black"/>
<line y1="0.5" x2="883" y2="0.5" stroke="black"/>
</svg>
