<svg width="30" height="30" viewBox="0 0 30 30" fill="none" xmlns="http://www.w3.org/2000/svg">
<path d="M0 27.1875C0 28.7402 1.43973 30 3.21429 30H26.7857C28.5603 30 30 28.7402 30 27.1875V11.25H0V27.1875ZM4.28571 15.9375C4.28571 15.4219 4.76786 15 5.35714 15H11.7857C12.375 15 12.8571 15.4219 12.8571 15.9375V21.5625C12.8571 22.0781 12.375 22.5 11.7857 22.5H5.35714C4.76786 22.5 4.28571 22.0781 4.28571 21.5625V15.9375ZM26.7857 3.75H23.5714V0.9375C23.5714 0.421875 23.0893 0 22.5 0H20.3571C19.7679 0 19.2857 0.421875 19.2857 0.9375V3.75H10.7143V0.9375C10.7143 0.421875 10.2321 0 9.64286 0H7.5C6.91071 0 6.42857 0.421875 6.42857 0.9375V3.75H3.21429C1.43973 3.75 0 5.00977 0 6.5625V9.375H30V6.5625C30 5.00977 28.5603 3.75 26.7857 3.75Z" fill="#86C232"/>
</svg>
