<svg width="30" height="30" viewBox="0 0 30 30" fill="none" xmlns="http://www.w3.org/2000/svg">
<path d="M13.8695 29.3947C5.54516 17.0526 4 15.7859 4 11.25C4 5.03678 8.92485 0 15 0C21.0752 0 26 5.03678 26 11.25C26 15.7859 24.4548 17.0526 16.1305 29.3947C15.5842 30.2018 14.4157 30.2017 13.8695 29.3947ZM15 15.9375C17.5313 15.9375 19.5833 13.8388 19.5833 11.25C19.5833 8.66115 17.5313 6.5625 15 6.5625C12.4687 6.5625 10.4167 8.66115 10.4167 11.25C10.4167 13.8388 12.4687 15.9375 15 15.9375Z" fill="#86C232"/>
</svg>
