<svg width="17" height="18" viewBox="0 0 17 18" fill="none" xmlns="http://www.w3.org/2000/svg">
<path d="M11.0404 13V15C11.0404 15.5304 10.8985 16.0391 10.6458 16.4142C10.3932 16.7893 10.0505 17 9.69322 17H3.22661C2.8693 17 2.52663 16.7893 2.27398 16.4142C2.02133 16.0391 1.87939 15.5304 1.87939 15V3C1.87939 2.46957 2.02133 1.96086 2.27398 1.58579C2.52663 1.21071 2.8693 1 3.22661 1H9.69322C10.0505 1 10.3932 1.21071 10.6458 1.58579C10.8985 1.96086 11.0404 2.46957 11.0404 3V5M13.196 13L15.8904 9M15.8904 9L13.196 5M15.8904 9H6.69567" stroke="#FF2F2F" stroke-width="2" stroke-linecap="round" stroke-linejoin="round"/>
</svg>
