<svg width="329" height="544" viewBox="0 0 329 544" fill="none" xmlns="http://www.w3.org/2000/svg">
<path d="M57.75 266.508C59.5509 265.514 62.0976 268.539 60.0155 271.627C58.3235 274.685 51.7476 275.918 47.5494 271.023C43.1665 266.584 43.3601 256.52 50.9546 251.153C58.0338 245.523 71.6601 247.039 78.1512 257.479C85.0913 267.283 82.2029 284.511 69.0772 292.103C56.6183 300.311 35.9011 296 27.1462 280.052C17.6114 264.858 23.2722 240.528 41.8928 230.678C59.7156 219.92 87.5621 226.953 98.5525 248.451C110.658 269.084 102.279 300.45 78.1389 312.579C54.8988 325.931 20.0642 316.104 6.74497 289.081C-7.86411 263.075 3.11921 224.576 32.8311 210.202C61.4648 194.287 103.361 206.866 118.954 239.422C136.166 270.832 122.416 316.42 87.2007 333.055C53.1939 351.508 4.18239 336.213 -13.6563 298.11C-33.4331 261.296 -16.963 208.628 23.7693 189.726C63.1431 168.676 119.25 186.777 139.355 230.393C161.691 272.592 142.521 332.391 96.2616 353.528C51.4986 377.129 -11.6712 356.301 -34.0575 307.138C-58.9759 259.495 -37.0389 192.69 14.7085 169.252C64.8627 143.137 135.109 166.616 159.756 221.364C187.271 274.402 162.574 348.306 105.323 374.004C49.7905 402.673 -27.5357 376.45 -54.4583 316.167C-84.5351 257.736 -57.1303 176.722 5.64657 148.776C66.5416 117.501 150.982 146.567 180.157 212.336C212.801 276.173 182.68 364.279 114.385 394.48C48.1052 428.289 -43.42 396.551 -74.8597 325.196C-110.098 255.968 -77.2027 160.77 -3.41492 128.301C68.284 91.9059 166.82 126.465 200.559 203.307C238.321 277.95 202.809 380.23 123.447 414.956C46.3603 453.932 -59.2313 416.608 -95.2611 334.225C-135.58 254.173 -97.3536 144.817 -12.4765 107.825C69.9695 66.2896 182.708 106.374 220.96 194.278C263.888 279.752 222.884 396.168 132.508 435.429C44.6697 479.515 -75.1221 436.722 -115.663 343.254C-161.147 252.396 -117.445 128.85 -21.538 87.3503C71.6712 40.6779 198.555 86.268 241.361 185.249C289.432 281.554 242.972 412.101 141.569 455.905C42.9747 505.089 -90.9897 456.861 -136.064 352.282C-186.742 250.58 -137.495 112.946 -30.5995 66.8749C73.3868 15.1299 214.405 66.1124 261.762 176.221C314.999 283.308 263.056 428.084 150.631 476.381C41.2653 530.704 -106.835 476.945 -156.465 361.311C-212.258 248.815 -157.599 96.9734 -39.661 46.3997C75.0643 -10.4829 230.293 46.0221 282.163 167.192C340.564 285.078 283.128 444.036 159.693 496.857C39.5411 556.314 -122.681 497.029 -176.867 370.34C-237.761 247.077 -177.741 80.9937 -48.7226 25.9243C76.8137 -36.1157 246.111 25.9511 302.565 158.163C366.04 286.863 303.281 459.988 168.754 517.331C37.8545 581.931 -138.566 517.129 -197.268 379.369C-263.337 245.279 -197.818 65.0553 -57.7841 5.44914" stroke="#333333" stroke-width="3" stroke-linecap="round"/>
</svg>
