<svg width="22" height="21" viewBox="0 0 22 21" fill="none" xmlns="http://www.w3.org/2000/svg">
<path d="M21.1875 18.6667C21.1875 19.9552 20.1427 21 18.8542 21H2.52083C1.23225 21 0.1875 19.9552 0.1875 18.6667V2.33333C0.1875 1.04475 1.23225 0 2.52083 0H18.8542C20.1427 0 21.1875 1.04475 21.1875 2.33333V18.6667Z" fill="#86C232"/>
<path d="M14.251 7.13185C14.251 8.27169 13.7633 9.26627 12.7682 9.89919C14.0702 10.4965 14.9743 11.7081 14.9743 13.1367C14.9743 15.3073 12.9852 17.1343 10.4168 17.1343C7.73984 17.1343 6.07617 15.1626 6.07617 13.734C6.07617 13.0288 6.81817 12.5224 7.46917 12.5224C8.69884 12.5224 8.40951 14.6388 10.4535 14.6388C11.3938 14.6388 12.1539 13.9154 12.1539 12.9564C12.1539 10.4242 9.07859 12.2874 9.07859 10.1529C9.07859 8.25419 11.6464 9.53811 11.6464 7.53027C11.6464 6.84252 11.1588 6.3181 10.3444 6.3181C8.62651 6.3181 8.86159 8.09027 7.63134 8.09027C6.88992 8.09027 6.45592 7.42119 6.45592 6.7521C6.45592 5.3416 8.39084 3.82202 10.3987 3.82202C13.0038 3.82202 14.251 5.72135 14.251 7.13185Z" fill="white"/>
</svg>
