<svg width="24" height="24" viewBox="0 0 24 24" fill="none" xmlns="http://www.w3.org/2000/svg">
<path d="M24 21.3333C24 22.806 22.806 24 21.3333 24H2.66667C1.194 24 0 22.806 0 21.3333V2.66667C0 1.194 1.194 0 2.66667 0H21.3333C22.806 0 24 1.194 24 2.66667V21.3333Z" fill="#86C232"/>
<path d="M10.9258 9.6593C11.4218 9.55597 11.9598 9.45263 12.4765 9.45263C14.9778 9.45263 16.7551 11.4373 16.7551 13.8553C16.7551 17.3073 14.8545 19.5813 11.2778 19.5813C9.81047 19.5813 6.73047 18.63 6.73047 16.8113C6.73047 16.0466 7.37114 15.4066 8.1358 15.4066C8.96247 15.4066 9.95514 16.7293 11.3398 16.7293C12.7865 16.7293 13.5318 15.3233 13.5318 14.0213C13.5318 12.7813 12.8285 11.934 11.5471 11.934C10.3478 11.934 10.1618 12.616 9.1078 12.616C8.3018 12.616 7.88847 11.996 7.88847 11.6446C7.88847 11.376 7.9298 11.1693 7.95047 10.942L8.46647 6.5793C8.6938 4.9673 9.08647 4.61597 10.0785 4.61597H15.0598C16.0118 4.61597 16.5691 5.17397 16.5691 5.91797C16.5691 7.34463 15.4951 7.46863 15.1225 7.46863H11.2365L10.9258 9.6593Z" fill="white"/>
</svg>
