<svg width="24" height="24" viewBox="0 0 24 24" fill="none" xmlns="http://www.w3.org/2000/svg">
<path d="M24 21.3333C24 22.806 22.806 24 21.3333 24H2.66667C1.194 24 0 22.806 0 21.3333V2.66667C0 1.194 1.194 0 2.66667 0H21.3333C22.806 0 24 1.194 24 2.66667V21.3333Z" fill="#86C232"/>
<path d="M6.8125 14.4554C6.8125 11.334 9.97517 6.95204 12.0625 5.00871C12.2278 4.84338 12.4758 4.67804 12.7238 4.51271C12.9512 4.36804 13.1792 4.36804 13.3445 4.36804C13.9225 4.36804 14.8118 5.13271 14.8118 5.87738C14.8118 6.16671 14.6258 6.41471 14.3778 6.72471C13.5512 7.73738 12.2078 9.06004 11.5252 10.032L11.5665 10.0734C11.9385 9.90804 12.4138 9.82538 12.8692 9.82538C15.3498 9.82538 17.1885 12.0167 17.1885 14.4554C17.1885 17.142 15.0592 19.582 11.9998 19.582C8.81783 19.5814 6.8125 17.2047 6.8125 14.4554ZM10.0372 14.4554C10.0372 15.6127 10.7605 16.6054 12.0005 16.6054C13.1792 16.6054 13.9645 15.654 13.9645 14.4554C13.9645 13.36 13.3032 12.3054 12.0005 12.3054C10.8225 12.3054 10.0372 13.236 10.0372 14.4554Z" fill="white"/>
</svg>
