<svg width="31" height="31" viewBox="0 0 31 31" fill="none" xmlns="http://www.w3.org/2000/svg">
<path d="M15.5 0.5C7.21552 0.5 0.5 7.21552 0.5 15.5C0.5 23.7845 7.21552 30.5 15.5 30.5C23.7845 30.5 30.5 23.7845 30.5 15.5C30.5 7.21552 23.7845 0.5 15.5 0.5ZM20.4772 22.129C20.2413 22.3637 19.994 22.6099 19.7931 22.8113C19.6123 22.9927 19.4847 23.2165 19.42 23.4591C19.3286 23.8014 19.2548 24.1474 19.1315 24.4794L18.0796 27.3131C17.2474 27.4946 16.3861 27.5968 15.5 27.5968V25.9407C15.6022 25.1774 15.0379 23.7476 14.1312 22.8409C13.7683 22.478 13.5645 21.9857 13.5645 21.4722V19.5361C13.5645 18.8321 13.1853 18.1849 12.569 17.8444C11.6998 17.3635 10.4635 16.6915 9.61673 16.2651C8.92238 15.9155 8.28004 15.4704 7.70242 14.9496L7.65403 14.906C7.24097 14.5332 6.87422 14.112 6.56169 13.6516C5.99436 12.8187 5.07016 11.4488 4.46956 10.5585C5.70766 7.80645 7.93891 5.59637 10.7115 4.39577L12.1637 5.12218C12.8073 5.44395 13.5645 4.97641 13.5645 4.25665V3.57319C14.0478 3.49516 14.5395 3.44556 15.0397 3.42681L16.7514 5.13851C17.1294 5.51653 17.1294 6.12923 16.7514 6.50726L16.4677 6.79032L15.8423 7.41573C15.6536 7.60443 15.6536 7.91109 15.8423 8.0998L16.126 8.38347C16.3147 8.57218 16.3147 8.87883 16.126 9.06754L15.6421 9.55141C15.5513 9.64209 15.4282 9.69299 15.2998 9.69294H14.756C14.6302 9.69294 14.5093 9.74193 14.4185 9.83024L13.8185 10.4139C13.745 10.4855 13.6961 10.5787 13.6789 10.6799C13.6618 10.7811 13.6772 10.8851 13.723 10.977L14.6659 12.8635C14.8268 13.1853 14.5927 13.5639 14.2335 13.5639H13.8923C13.7756 13.5639 13.6631 13.5216 13.5754 13.4454L13.0141 12.9579C12.8871 12.8477 12.7336 12.7724 12.5687 12.7396C12.4038 12.7067 12.2331 12.7173 12.0736 12.7704L10.1883 13.3988C10.0444 13.4468 9.91919 13.5389 9.8305 13.662C9.74181 13.7851 9.69411 13.933 9.69415 14.0847C9.69415 14.3587 9.84899 14.6085 10.094 14.7312L10.7641 15.0663C11.3333 15.3512 11.9611 15.4994 12.5974 15.4994C13.2337 15.4994 13.9637 17.15 14.5329 17.4349H18.5702C19.0837 17.4349 19.5754 17.6387 19.9389 18.0016L20.7669 18.8296C21.1129 19.1757 21.3071 19.645 21.3071 20.1343C21.3069 20.505 21.2336 20.8721 21.0911 21.2144C20.9487 21.5568 20.7401 21.8676 20.4772 22.129ZM25.7218 16.6038C25.3716 16.5161 25.0661 16.3014 24.8659 16.0008L23.7784 14.3696C23.6193 14.1312 23.5344 13.8511 23.5344 13.5645C23.5344 13.2779 23.6193 12.9978 23.7784 12.7595L24.9633 10.9825C25.1036 10.7726 25.296 10.602 25.5222 10.4895L26.3073 10.097C27.125 11.7252 27.5968 13.5567 27.5968 15.5C27.5968 16.0244 27.552 16.5379 27.4867 17.0448L25.7218 16.6038Z" fill="#86C232"/>
</svg>
