<svg width="30" height="30" viewBox="0 0 30 30" fill="none" xmlns="http://www.w3.org/2000/svg">
<path d="M9 13.125C12.3161 13.125 15 10.1895 15 6.5625C15 2.93555 12.3161 0 9 0C5.68393 0 3 2.93555 3 6.5625C3 10.1895 5.68393 13.125 9 13.125ZM9 3.75C10.4196 3.75 11.5714 5.00977 11.5714 6.5625C11.5714 8.11523 10.4196 9.375 9 9.375C7.58036 9.375 6.42857 8.11523 6.42857 6.5625C6.42857 5.00977 7.58036 3.75 9 3.75ZM21 16.875C17.6839 16.875 15 19.8105 15 23.4375C15 27.0645 17.6839 30 21 30C24.3161 30 27 27.0645 27 23.4375C27 19.8105 24.3161 16.875 21 16.875ZM21 26.25C19.5804 26.25 18.4286 24.9902 18.4286 23.4375C18.4286 21.8848 19.5804 20.625 21 20.625C22.4196 20.625 23.5714 21.8848 23.5714 23.4375C23.5714 24.9902 22.4196 26.25 21 26.25ZM24.0161 0.0117188L25.7089 0.00585938C26.7482 0 27.3643 1.2832 26.7643 2.2207L7.14643 29.3906C7.02814 29.5751 6.87097 29.7258 6.68821 29.8298C6.50544 29.9338 6.30246 29.9882 6.09643 29.9883L4.30714 29.9941C3.2625 29.9941 2.65179 28.7109 3.25179 27.7793L22.9661 0.609375C23.2071 0.234375 23.5982 0.0117188 24.0161 0.0117188Z" fill="#86C232"/>
</svg>
