<svg width="30" height="30" viewBox="0 0 30 30" fill="none" xmlns="http://www.w3.org/2000/svg">
<path d="M20.7139 18.7857L15.1244 24.3753L9.53479 18.7857C5.34554 18.9673 2 22.3949 2 26.6252V27.1876C2 28.7403 3.2597 30 4.81236 30H25.4364C26.989 30 28.2487 28.7403 28.2487 27.1876V26.6252C28.2487 22.3949 24.9032 18.9673 20.7139 18.7857ZM2.79684 4.67702L3.17182 4.7649V8.18661C2.76168 8.43269 2.46873 8.86041 2.46873 9.37601C2.46873 9.86817 2.73825 10.2783 3.11909 10.5302L2.20507 14.1805C2.10546 14.5847 2.32811 15.0007 2.65036 15.0007H5.09946C5.42171 15.0007 5.64435 14.5847 5.54475 14.1805L4.63073 10.5302C5.01157 10.2783 5.28109 9.86817 5.28109 9.37601C5.28109 8.86041 4.98814 8.43269 4.578 8.18661V5.10473L8.445 6.03633C7.94112 7.04409 7.62473 8.16903 7.62473 9.37601C7.62473 13.5184 10.982 16.8756 15.1244 16.8756C19.2667 16.8756 22.624 13.5184 22.624 9.37601C22.624 8.16903 22.3135 7.04409 21.8037 6.03633L27.446 4.67702C28.5124 4.41922 28.5124 3.0892 27.446 2.8314L16.2903 0.136224C15.5286 -0.0454079 14.7259 -0.0454079 13.9643 0.136224L2.79684 2.82555C1.73634 3.08335 1.73634 4.41922 2.79684 4.67702Z" fill="#86C232"/>
</svg>
