<svg width="30" height="30" viewBox="0 0 30 30" fill="none" xmlns="http://www.w3.org/2000/svg">
<path d="M15.0318 0C17.1029 0 18.7818 1.67895 18.7818 3.75C18.7818 5.82105 17.1029 7.5 15.0318 7.5C12.9608 7.5 11.2818 5.82105 11.2818 3.75C11.2818 1.67895 12.9608 0 15.0318 0ZM22.0211 20.7527L19.2086 9.50268C19.1325 9.19843 18.9569 8.92834 18.7098 8.73534C18.4626 8.54234 18.158 8.4375 17.8443 8.4375H17.1787C15.848 9.04939 14.2731 9.07582 12.885 8.4375H12.2193C11.9057 8.4375 11.6011 8.54234 11.3539 8.73534C11.1067 8.92834 10.9312 9.19843 10.8551 9.50268L8.0426 20.7527C7.821 21.639 8.49178 22.5 9.40684 22.5H12.6881V28.5938C12.6881 29.3704 13.3177 30 14.0943 30H15.9693C16.746 30 17.3756 29.3704 17.3756 28.5938V22.5H20.6568C21.5704 22.5 22.243 21.6404 22.0211 20.7527Z" fill="#86C232"/>
</svg>
