<svg width="32" height="32" viewBox="0 0 32 32" fill="none" xmlns="http://www.w3.org/2000/svg">
<path d="M16 1.07599L31.78 11.3333L29.3333 12.924V21.3333H26.6666V14.656L25.3333 15.5227V23.3333C25.3333 25.2933 23.9813 26.82 22.3293 27.784C20.6426 28.768 18.4026 29.3333 16 29.3333C13.5973 29.3333 11.356 28.768 9.67064 27.784C8.0173 26.8213 6.66664 25.2933 6.66664 23.3333V15.524L0.219971 11.3333L16 1.07599ZM9.3333 17.2573V23.3333C9.3333 23.9507 9.7733 24.756 11.0146 25.48C12.2253 26.1867 13.984 26.6667 16 26.6667C18.016 26.6667 19.7746 26.1867 20.9853 25.48C22.228 24.756 22.6653 23.9507 22.6653 23.3333V17.2573L15.9986 21.5907L9.3333 17.2573ZM26.8866 11.3333L16 4.25599L5.1133 11.3333L16 18.4093L26.8866 11.3333Z" fill="#0A0A0A"/>
</svg>
