<svg width="61" height="61" viewBox="0 0 61 61" fill="none" xmlns="http://www.w3.org/2000/svg">
<circle cx="30.5" cy="30.5" r="29" stroke="#86C232" stroke-width="3"/>
<path d="M33.7502 26.23C33.4569 24.75 32.5435 24.01 31.0102 24.01C29.8235 24.01 28.9369 24.47 28.3502 25.39C27.7635 26.2967 27.4769 27.7967 27.4902 29.89C27.7969 29.1967 28.3035 28.6567 29.0102 28.27C29.7302 27.87 30.5302 27.67 31.4102 27.67C32.7835 27.67 33.8769 28.0967 34.6902 28.95C35.5169 29.8033 35.9302 30.9833 35.9302 32.49C35.9302 33.3967 35.7502 34.21 35.3902 34.93C35.0435 35.65 34.5102 36.2233 33.7902 36.65C33.0835 37.0767 32.2235 37.29 31.2102 37.29C29.8369 37.29 28.7635 36.9833 27.9902 36.37C27.2169 35.7567 26.6769 34.91 26.3702 33.83C26.0635 32.75 25.9102 31.4167 25.9102 29.83C25.9102 24.9367 27.6169 22.49 31.0302 22.49C32.3369 22.49 33.3635 22.8433 34.1102 23.55C34.8569 24.2567 35.2969 25.15 35.4302 26.23H33.7502ZM31.0302 29.21C30.4569 29.21 29.9169 29.33 29.4102 29.57C28.9035 29.7967 28.4902 30.15 28.1702 30.63C27.8635 31.0967 27.7102 31.67 27.7102 32.35C27.7102 33.3633 28.0035 34.19 28.5902 34.83C29.1769 35.4567 30.0169 35.77 31.1102 35.77C32.0435 35.77 32.7835 35.4833 33.3302 34.91C33.8902 34.3233 34.1702 33.5367 34.1702 32.55C34.1702 31.51 33.9035 30.6967 33.3702 30.11C32.8369 29.51 32.0569 29.21 31.0302 29.21Z" fill="black"/>
</svg>
