<svg width="60" height="60" viewBox="0 0 60 60" fill="none" xmlns="http://www.w3.org/2000/svg">
<circle cx="30" cy="30" r="28.5" stroke="#86C232" stroke-width="3"/>
<path d="M34.46 24.12H27.44V28.68C27.7467 28.2533 28.2 27.9067 28.8 27.64C29.4 27.36 30.0467 27.22 30.74 27.22C31.8467 27.22 32.7467 27.4533 33.44 27.92C34.1333 28.3733 34.6267 28.9667 34.92 29.7C35.2267 30.42 35.38 31.1867 35.38 32C35.38 32.96 35.2 33.82 34.84 34.58C34.48 35.34 33.9267 35.94 33.18 36.38C32.4467 36.82 31.5333 37.04 30.44 37.04C29.04 37.04 27.9067 36.68 27.04 35.96C26.1733 35.24 25.6467 34.28 25.46 33.08H27.24C27.4133 33.84 27.78 34.4333 28.34 34.86C28.9 35.2867 29.6067 35.5 30.46 35.5C31.5133 35.5 32.3067 35.1867 32.84 34.56C33.3733 33.92 33.64 33.08 33.64 32.04C33.64 31 33.3733 30.2 32.84 29.64C32.3067 29.0667 31.52 28.78 30.48 28.78C29.7733 28.78 29.1533 28.9533 28.62 29.3C28.1 29.6333 27.72 30.0933 27.48 30.68H25.76V22.52H34.46V24.12Z" fill="black"/>
</svg>
