<svg width="20" height="21" viewBox="0 0 20 21" fill="none" xmlns="http://www.w3.org/2000/svg">
<path d="M19.7654 18.9468L14.203 13.3869C15.2915 12.0356 15.9477 10.3232 15.9477 8.4613C15.9477 4.10307 12.3801 0.570068 7.97386 0.570068C3.56767 0.570068 0 4.10823 0 8.46646C0 12.8247 3.56767 16.3577 7.97386 16.3577C9.88009 16.3577 11.6249 15.6975 12.9998 14.5938L18.5258 20.1176C18.6925 20.293 18.9216 20.3807 19.1456 20.3807C19.3591 20.3807 19.5727 20.3033 19.7341 20.1486C20.0779 19.8236 20.0883 19.2873 19.7654 18.9468ZM7.97386 14.6608C6.30201 14.6608 4.72911 14.0161 3.54683 12.8453C2.36455 11.6745 1.71352 10.1169 1.71352 8.46646C1.71352 6.81085 2.36455 5.25323 3.54683 4.0876C4.72911 2.91681 6.30201 2.2721 7.97386 2.2721C9.64572 2.2721 11.2186 2.91681 12.4009 4.0876C13.5832 5.25839 14.2342 6.81601 14.2342 8.46646C14.2342 10.1221 13.5832 11.6797 12.4009 12.8453C11.2186 14.0161 9.64572 14.6608 7.97386 14.6608Z" fill="black"/>
</svg>
