<svg width="48" height="48" viewBox="0 0 48 48" fill="none" xmlns="http://www.w3.org/2000/svg">
<path d="M44.8695 24.0001C44.8695 12.4742 35.5258 3.13049 23.9999 3.13049C12.4741 3.13049 3.13037 12.474 3.13037 24.0001C3.13037 34.4166 10.7621 43.0506 20.7391 44.6161V30.0327H15.4402V24.0001H20.7391V19.4022C20.7391 14.1718 23.8548 11.2827 28.6217 11.2827C30.9052 11.2827 33.2934 11.6903 33.2934 11.6903V16.8261H30.6619C28.0692 16.8261 27.2608 18.4349 27.2608 20.0854V24.0001H33.0489L32.1236 30.0327H27.2608V44.6161C37.2378 43.0506 44.8695 34.4167 44.8695 24.0001Z" fill="#1877F2"/>
<path d="M32.1236 30.0326L33.0489 24H27.2608V20.0853C27.2608 18.4347 28.0694 16.8261 30.6619 16.8261H33.2934V11.6902C33.2934 11.6902 30.9052 11.2826 28.6218 11.2826C23.8549 11.2826 20.7391 14.1717 20.7391 19.4022V24H15.4402V30.0326H20.7391V44.616C21.8178 44.7851 22.9081 44.8698 24 44.8695C25.0919 44.8699 26.1821 44.7851 27.2608 44.616V30.0326H32.1236Z" fill="#EEEEEE"/>
</svg>
