<svg width="373" height="322" viewBox="0 0 373 322" fill="none" xmlns="http://www.w3.org/2000/svg">
<rect x="0.5" y="0.5" width="372" height="321" rx="14.5" fill="#FDFDFD" stroke="#9A9A9A"/>
<line x1="75.5991" y1="312" x2="75.5991" y2="72" stroke="url(#paint0_linear_1_32)" stroke-width="4"/>
<path d="M118.889 236.989C118.889 238.589 118.484 239.847 117.672 240.763C116.866 241.679 115.736 242.137 114.282 242.137C112.81 242.137 111.67 241.688 110.864 240.79C110.062 239.888 109.661 238.616 109.661 236.976C109.661 235.349 110.059 234.089 110.857 233.195C111.659 232.298 112.805 231.849 114.295 231.849C115.745 231.849 116.873 232.304 117.679 233.216C118.486 234.123 118.889 235.381 118.889 236.989ZM110.987 236.989C110.987 238.311 111.267 239.318 111.828 240.011C112.388 240.703 113.206 241.05 114.282 241.05C115.353 241.05 116.166 240.708 116.722 240.024C117.278 239.341 117.556 238.329 117.556 236.989C117.556 235.654 117.28 234.649 116.729 233.975C116.178 233.296 115.366 232.956 114.295 232.956C113.211 232.956 112.388 233.3 111.828 233.988C111.267 234.672 110.987 235.672 110.987 236.989ZM126.115 235.533H123.661V242H122.444V235.533H120.024V234.494H126.115V235.533ZM128.835 242H127.605V234.494H133.949V242H132.718V235.547H128.835V242ZM139.896 242.137C138.889 242.137 138.114 241.774 137.572 241.05H137.49L137.517 241.33C137.554 241.686 137.572 242.002 137.572 242.28V245.363H136.341V234.494H137.353L137.517 235.52H137.572C137.863 235.109 138.201 234.813 138.583 234.631C138.966 234.449 139.408 234.357 139.91 234.357C140.885 234.357 141.641 234.697 142.179 235.376C142.722 236.05 142.993 237.003 142.993 238.233C142.993 239.459 142.722 240.416 142.179 241.104C141.637 241.793 140.876 242.137 139.896 242.137ZM139.691 235.39C138.948 235.39 138.41 235.599 138.078 236.019C137.75 236.438 137.581 237.096 137.572 237.994V238.233C137.572 239.25 137.74 239.986 138.078 240.441C138.415 240.893 138.962 241.118 139.718 241.118C140.347 241.118 140.837 240.863 141.188 240.353C141.543 239.842 141.721 239.131 141.721 238.22C141.721 237.304 141.543 236.604 141.188 236.121C140.837 235.633 140.338 235.39 139.691 235.39ZM149.589 242L149.35 240.934H149.295C148.922 241.403 148.548 241.722 148.174 241.891C147.805 242.055 147.338 242.137 146.773 242.137C146.035 242.137 145.456 241.943 145.037 241.556C144.617 241.168 144.408 240.621 144.408 239.915C144.408 238.393 145.609 237.595 148.01 237.522L149.282 237.475V237.03C149.282 236.461 149.159 236.041 148.913 235.772C148.667 235.499 148.272 235.362 147.73 235.362C147.333 235.362 146.958 235.422 146.602 235.54C146.251 235.659 145.921 235.791 145.611 235.937L145.235 235.014C145.613 234.813 146.026 234.656 146.472 234.542C146.919 234.428 147.361 234.371 147.798 234.371C148.705 234.371 149.38 234.572 149.822 234.973C150.264 235.374 150.485 236.012 150.485 236.887V242H149.589ZM147.053 241.146C147.741 241.146 148.281 240.961 148.673 240.592C149.07 240.218 149.268 239.689 149.268 239.006V238.329L148.161 238.377C147.299 238.409 146.67 238.546 146.274 238.787C145.882 239.029 145.686 239.409 145.686 239.929C145.686 240.321 145.805 240.621 146.042 240.831C146.283 241.041 146.62 241.146 147.053 241.146ZM158.989 236.388C158.989 236.871 158.852 237.24 158.579 237.495C158.305 237.746 157.916 237.917 157.41 238.008V238.069C158.043 238.156 158.503 238.345 158.791 238.637C159.082 238.924 159.228 239.311 159.228 239.799C159.228 240.51 158.966 241.054 158.442 241.433C157.922 241.811 157.173 242 156.193 242H152.816V234.494H156.179C158.052 234.494 158.989 235.125 158.989 236.388ZM157.998 239.73C157.998 239.311 157.833 239.017 157.505 238.849C157.177 238.68 156.696 238.596 156.063 238.596H154.046V241.009H156.09C157.362 241.009 157.998 240.583 157.998 239.73ZM157.786 236.497C157.786 236.146 157.649 235.896 157.375 235.745C157.107 235.595 156.699 235.52 156.152 235.52H154.046V237.577H155.926C156.596 237.577 157.072 237.495 157.355 237.331C157.642 237.162 157.786 236.884 157.786 236.497ZM165.319 234.494H166.666L163.459 238.11L166.932 242H165.503L162.113 238.192V242H160.882V234.494H162.113V238.138L165.319 234.494ZM172.927 242L172.688 240.934H172.633C172.26 241.403 171.886 241.722 171.512 241.891C171.143 242.055 170.676 242.137 170.111 242.137C169.373 242.137 168.794 241.943 168.375 241.556C167.955 241.168 167.746 240.621 167.746 239.915C167.746 238.393 168.946 237.595 171.348 237.522L172.62 237.475V237.03C172.62 236.461 172.497 236.041 172.25 235.772C172.004 235.499 171.61 235.362 171.068 235.362C170.671 235.362 170.295 235.422 169.94 235.54C169.589 235.659 169.259 235.791 168.949 235.937L168.573 235.014C168.951 234.813 169.363 234.656 169.81 234.542C170.257 234.428 170.699 234.371 171.136 234.371C172.043 234.371 172.718 234.572 173.16 234.973C173.602 235.374 173.823 236.012 173.823 236.887V242H172.927ZM170.391 241.146C171.079 241.146 171.619 240.961 172.011 240.592C172.408 240.218 172.606 239.689 172.606 239.006V238.329L171.499 238.377C170.637 238.409 170.008 238.546 169.612 238.787C169.22 239.029 169.024 239.409 169.024 239.929C169.024 240.321 169.142 240.621 169.379 240.831C169.621 241.041 169.958 241.146 170.391 241.146ZM186.551 244.604H185.362V242H180.139V244.604H178.963V240.961H179.565C180.171 240.118 180.643 239.143 180.98 238.035C181.317 236.923 181.495 235.743 181.513 234.494H185.458V240.961H186.551V244.604ZM184.268 240.961V235.465H182.6C182.532 236.472 182.336 237.484 182.012 238.5C181.693 239.512 181.301 240.332 180.836 240.961H184.268ZM194.542 238.233C194.542 239.459 194.233 240.416 193.613 241.104C192.993 241.793 192.136 242.137 191.042 242.137C190.363 242.137 189.762 241.979 189.238 241.665C188.714 241.346 188.31 240.89 188.028 240.298C187.745 239.705 187.604 239.017 187.604 238.233C187.604 237.012 187.909 236.062 188.52 235.383C189.131 234.699 189.987 234.357 191.09 234.357C192.148 234.357 192.986 234.706 193.606 235.403C194.23 236.096 194.542 237.039 194.542 238.233ZM188.875 238.233C188.875 239.177 189.06 239.895 189.429 240.387C189.803 240.874 190.352 241.118 191.077 241.118C191.792 241.118 192.337 240.874 192.71 240.387C193.084 239.895 193.271 239.177 193.271 238.233C193.271 237.29 193.082 236.581 192.704 236.107C192.33 235.629 191.781 235.39 191.056 235.39C189.602 235.39 188.875 236.338 188.875 238.233ZM200.934 234.494H202.281L199.075 238.11L202.547 242H201.119L197.728 238.192V242H196.498V234.494H197.728V238.138L200.934 234.494ZM202.732 234.494H204.051L205.671 238.767C206.013 239.696 206.223 240.378 206.3 240.811H206.355C206.396 240.642 206.489 240.327 206.635 239.867C206.781 239.402 206.904 239.031 207.004 238.753L208.529 234.494H209.855L206.622 243.039C206.307 243.868 205.933 244.463 205.5 244.823C205.068 245.183 204.532 245.363 203.894 245.363C203.552 245.363 203.213 245.325 202.875 245.247V244.27C203.103 244.324 203.377 244.352 203.696 244.352C204.088 244.352 204.42 244.242 204.694 244.023C204.967 243.809 205.191 243.477 205.364 243.025L205.753 242.027L202.732 234.494ZM215.037 240.824C215.173 240.327 215.347 239.815 215.556 239.286L217.511 234.494H219.097V242H217.99V235.813C217.83 236.31 217.643 236.832 217.429 237.379L215.556 242H214.558L212.685 237.352C212.594 237.133 212.503 236.894 212.412 236.634C212.325 236.374 212.238 236.101 212.152 235.813V242H211.044V234.494H212.583L214.476 239.102C214.645 239.53 214.832 240.104 215.037 240.824ZM224.682 242.137C223.556 242.137 222.672 241.797 222.03 241.118C221.392 240.435 221.073 239.496 221.073 238.302C221.073 237.099 221.371 236.142 221.968 235.431C222.565 234.715 223.372 234.357 224.388 234.357C225.332 234.357 226.083 234.663 226.644 235.273C227.205 235.88 227.485 236.702 227.485 237.741V238.486H222.344C222.367 239.339 222.583 239.986 222.994 240.428C223.404 240.87 223.985 241.091 224.737 241.091C225.138 241.091 225.518 241.057 225.878 240.988C226.238 240.915 226.66 240.776 227.143 240.571V241.651C226.728 241.829 226.339 241.954 225.974 242.027C225.61 242.1 225.179 242.137 224.682 242.137ZM224.375 235.362C223.787 235.362 223.322 235.551 222.98 235.93C222.638 236.308 222.435 236.834 222.372 237.509H226.193C226.184 236.807 226.022 236.274 225.708 235.909C225.393 235.545 224.949 235.362 224.375 235.362ZM230.623 234.494V237.618H234.697V234.494H235.927V242H234.697V238.657H230.623V242H229.392V234.494H230.623ZM243.501 235.533H241.047V242H239.831V235.533H237.411V234.494H243.501V235.533ZM251.445 238.233C251.445 239.459 251.135 240.416 250.515 241.104C249.895 241.793 249.039 242.137 247.945 242.137C247.266 242.137 246.664 241.979 246.14 241.665C245.616 241.346 245.213 240.89 244.93 240.298C244.648 239.705 244.506 239.017 244.506 238.233C244.506 237.012 244.812 236.062 245.422 235.383C246.033 234.699 246.89 234.357 247.993 234.357C249.05 234.357 249.889 234.706 250.508 235.403C251.133 236.096 251.445 237.039 251.445 238.233ZM245.778 238.233C245.778 239.177 245.962 239.895 246.332 240.387C246.705 240.874 247.254 241.118 247.979 241.118C248.694 241.118 249.239 240.874 249.613 240.387C249.986 239.895 250.173 239.177 250.173 238.233C250.173 237.29 249.984 236.581 249.606 236.107C249.232 235.629 248.683 235.39 247.958 235.39C246.505 235.39 245.778 236.338 245.778 238.233ZM259.573 236.388C259.573 236.871 259.436 237.24 259.163 237.495C258.889 237.746 258.5 237.917 257.994 238.008V238.069C258.627 238.156 259.087 238.345 259.375 238.637C259.666 238.924 259.812 239.311 259.812 239.799C259.812 240.51 259.55 241.054 259.026 241.433C258.506 241.811 257.757 242 256.777 242H253.4V234.494H256.763C258.636 234.494 259.573 235.125 259.573 236.388ZM258.582 239.73C258.582 239.311 258.417 239.017 258.089 238.849C257.761 238.68 257.28 238.596 256.647 238.596H254.63V241.009H256.674C257.946 241.009 258.582 240.583 258.582 239.73ZM258.37 236.497C258.37 236.146 258.233 235.896 257.959 235.745C257.691 235.595 257.283 235.52 256.736 235.52H254.63V237.577H256.51C257.18 237.577 257.656 237.495 257.939 237.331C258.226 237.162 258.37 236.884 258.37 236.497Z" fill="#B6B6B6"/>
<ellipse cx="75.4466" cy="237" rx="20.4466" ry="19" fill="#D9D9D9"/>
<path d="M117.551 173.797C117.551 174.485 117.307 175.054 116.819 175.503C116.331 175.953 115.669 176.238 114.834 176.36V176.404C115.815 176.502 116.567 176.773 117.09 177.217C117.617 177.662 117.881 178.24 117.881 178.953C117.881 179.939 117.48 180.718 116.68 181.29C115.884 181.861 114.78 182.146 113.369 182.146C111.797 182.146 110.535 181.954 109.583 181.568V179.664C110.042 179.883 110.579 180.057 111.194 180.184C111.814 180.306 112.393 180.367 112.93 180.367C114.731 180.367 115.632 179.842 115.632 178.792C115.632 178.318 115.342 177.955 114.761 177.701C114.185 177.447 113.33 177.32 112.197 177.32H111.194V175.547H112.095C113.228 175.547 114.053 175.44 114.57 175.225C115.088 175.01 115.347 174.654 115.347 174.156C115.347 173.79 115.183 173.499 114.856 173.284C114.534 173.064 114.048 172.955 113.398 172.955C112.393 172.955 111.421 173.245 110.483 173.826L109.495 172.31C110.105 171.905 110.752 171.609 111.436 171.424C112.119 171.233 112.878 171.138 113.713 171.138C114.88 171.138 115.811 171.382 116.504 171.871C117.202 172.359 117.551 173.001 117.551 173.797ZM124.905 182L124.473 180.887H124.414C124.038 181.36 123.65 181.69 123.25 181.875C122.854 182.056 122.336 182.146 121.697 182.146C120.911 182.146 120.291 181.922 119.836 181.473C119.387 181.023 119.163 180.384 119.163 179.554C119.163 178.685 119.465 178.045 120.071 177.635C120.681 177.22 121.599 176.99 122.825 176.946L124.246 176.902V176.543C124.246 175.713 123.821 175.298 122.971 175.298C122.317 175.298 121.548 175.496 120.664 175.892L119.924 174.383C120.867 173.89 121.912 173.643 123.059 173.643C124.158 173.643 125 173.882 125.586 174.361C126.172 174.839 126.465 175.567 126.465 176.543V182H124.905ZM124.246 178.206L123.381 178.235C122.732 178.255 122.249 178.372 121.931 178.587C121.614 178.802 121.455 179.129 121.455 179.568C121.455 180.198 121.816 180.513 122.539 180.513C123.057 180.513 123.469 180.364 123.777 180.066C124.089 179.769 124.246 179.373 124.246 178.88V178.206ZM136.213 173.812V182H133.972V175.489H131.006V182H128.772V173.812H136.213ZM140.337 177.891C140.337 178.702 140.469 179.314 140.732 179.729C141.001 180.145 141.436 180.352 142.036 180.352C142.632 180.352 143.059 180.147 143.318 179.737C143.582 179.322 143.713 178.707 143.713 177.891C143.713 177.081 143.582 176.473 143.318 176.067C143.054 175.662 142.622 175.459 142.021 175.459C141.426 175.459 140.996 175.662 140.732 176.067C140.469 176.468 140.337 177.076 140.337 177.891ZM145.999 177.891C145.999 179.224 145.647 180.267 144.944 181.019C144.241 181.771 143.262 182.146 142.007 182.146C141.221 182.146 140.527 181.976 139.927 181.634C139.326 181.287 138.865 180.792 138.542 180.147C138.22 179.502 138.059 178.75 138.059 177.891C138.059 176.553 138.408 175.513 139.106 174.771C139.805 174.029 140.786 173.658 142.051 173.658C142.837 173.658 143.53 173.829 144.131 174.17C144.731 174.512 145.193 175.003 145.515 175.643C145.837 176.282 145.999 177.032 145.999 177.891ZM155.176 182H152.942V175.489H150.884C150.728 177.32 150.537 178.687 150.312 179.59C150.088 180.489 149.788 181.141 149.412 181.546C149.041 181.946 148.552 182.146 147.947 182.146C147.429 182.146 147.004 182.068 146.672 181.912V180.125C146.912 180.223 147.151 180.271 147.39 180.271C147.668 180.271 147.9 180.071 148.086 179.671C148.276 179.271 148.445 178.604 148.591 177.671C148.743 176.734 148.872 175.447 148.979 173.812H155.176V182ZM159.761 173.812V176.961H162.881V173.812H165.115V182H162.881V178.624H159.761V182H157.527V173.812H159.761ZM170.85 175.247C170.376 175.247 170.005 175.398 169.736 175.701C169.468 175.999 169.314 176.424 169.275 176.976H172.41C172.4 176.424 172.256 175.999 171.978 175.701C171.699 175.398 171.323 175.247 170.85 175.247ZM171.165 182.146C169.846 182.146 168.816 181.783 168.074 181.055C167.332 180.328 166.96 179.297 166.96 177.964C166.96 176.592 167.302 175.533 167.986 174.786C168.674 174.034 169.624 173.658 170.835 173.658C171.992 173.658 172.893 173.987 173.538 174.646C174.182 175.306 174.504 176.216 174.504 177.378V178.462H169.224C169.248 179.097 169.436 179.593 169.788 179.949C170.139 180.306 170.632 180.484 171.267 180.484C171.76 180.484 172.227 180.433 172.666 180.33C173.105 180.228 173.564 180.064 174.043 179.839V181.568C173.652 181.763 173.235 181.907 172.791 182C172.346 182.098 171.804 182.146 171.165 182.146ZM178.555 173.812V176.961H181.675V173.812H183.909V182H181.675V178.624H178.555V182H176.321V173.812H178.555ZM188.413 173.812V177.049C188.413 177.391 188.357 178.226 188.245 179.554L192.024 173.812H194.712V182H192.551V178.733C192.551 178.152 192.6 177.332 192.698 176.272L188.933 182H186.252V173.812H188.413ZM200.454 175.247C199.98 175.247 199.609 175.398 199.341 175.701C199.072 175.999 198.918 176.424 198.879 176.976H202.014C202.004 176.424 201.86 175.999 201.582 175.701C201.304 175.398 200.928 175.247 200.454 175.247ZM200.769 182.146C199.451 182.146 198.42 181.783 197.678 181.055C196.936 180.328 196.565 179.297 196.565 177.964C196.565 176.592 196.907 175.533 197.59 174.786C198.279 174.034 199.229 173.658 200.439 173.658C201.597 173.658 202.498 173.987 203.142 174.646C203.787 175.306 204.109 176.216 204.109 177.378V178.462H198.828C198.853 179.097 199.041 179.593 199.392 179.949C199.744 180.306 200.237 180.484 200.872 180.484C201.365 180.484 201.831 180.433 202.271 180.33C202.71 180.228 203.169 180.064 203.647 179.839V181.568C203.257 181.763 202.839 181.907 202.395 182C201.951 182.098 201.409 182.146 200.769 182.146ZM211.14 176.961C211.985 176.961 212.583 176.893 212.935 176.756C213.291 176.619 213.469 176.402 213.469 176.104C213.469 175.84 213.34 175.643 213.081 175.511C212.822 175.379 212.395 175.313 211.799 175.313C211.423 175.313 210.996 175.359 210.518 175.452C210.044 175.545 209.612 175.672 209.221 175.833L208.562 174.273C209.143 174.053 209.707 173.897 210.254 173.804C210.801 173.707 211.411 173.658 212.085 173.658C213.105 173.658 213.923 173.853 214.539 174.244C215.154 174.634 215.461 175.164 215.461 175.833C215.461 176.756 214.917 177.356 213.828 177.635V177.708C214.497 177.874 214.973 178.111 215.256 178.418C215.544 178.721 215.688 179.119 215.688 179.612C215.688 180.11 215.527 180.552 215.205 180.938C214.883 181.324 214.417 181.622 213.806 181.832C213.196 182.042 212.478 182.146 211.653 182.146C210.286 182.146 209.236 181.978 208.503 181.641V179.795C208.923 179.991 209.382 180.145 209.88 180.257C210.383 180.369 210.869 180.425 211.338 180.425C212.065 180.425 212.61 180.345 212.971 180.184C213.333 180.018 213.513 179.783 213.513 179.48C213.513 179.148 213.323 178.904 212.942 178.748C212.561 178.587 211.975 178.506 211.184 178.506H210.32V176.961H211.14ZM222.639 182L222.207 180.887H222.148C221.772 181.36 221.384 181.69 220.984 181.875C220.588 182.056 220.071 182.146 219.431 182.146C218.645 182.146 218.025 181.922 217.571 181.473C217.122 181.023 216.897 180.384 216.897 179.554C216.897 178.685 217.2 178.045 217.805 177.635C218.416 177.22 219.333 176.99 220.559 176.946L221.98 176.902V176.543C221.98 175.713 221.555 175.298 220.706 175.298C220.051 175.298 219.282 175.496 218.398 175.892L217.659 174.383C218.601 173.89 219.646 173.643 220.793 173.643C221.892 173.643 222.734 173.882 223.32 174.361C223.906 174.839 224.199 175.567 224.199 176.543V182H222.639ZM221.98 178.206L221.116 178.235C220.466 178.255 219.983 178.372 219.666 178.587C219.348 178.802 219.189 179.129 219.189 179.568C219.189 180.198 219.551 180.513 220.273 180.513C220.791 180.513 221.204 180.364 221.511 180.066C221.824 179.769 221.98 179.373 221.98 178.88V178.206ZM227.751 182H225.334L227.539 178.763C227.012 178.543 226.611 178.226 226.338 177.811C226.069 177.396 225.935 176.907 225.935 176.346C225.935 175.555 226.23 174.935 226.821 174.485C227.417 174.036 228.228 173.812 229.253 173.812H233.062V182H230.828V178.953H229.597L227.751 182ZM228.125 176.36C228.125 176.702 228.259 176.971 228.528 177.166C228.796 177.356 229.148 177.452 229.583 177.452H230.828V175.386H229.297C228.931 175.386 228.643 175.477 228.433 175.657C228.228 175.833 228.125 176.067 228.125 176.36ZM242.957 175.958C242.957 176.397 242.817 176.773 242.539 177.085C242.266 177.393 241.86 177.591 241.323 177.679V177.737C241.904 177.806 242.363 178.006 242.7 178.338C243.042 178.665 243.213 179.07 243.213 179.554C243.213 180.35 242.9 180.958 242.275 181.377C241.65 181.792 240.757 182 239.595 182H235.398V173.812H239.595C240.718 173.812 241.558 173.995 242.114 174.361C242.676 174.722 242.957 175.254 242.957 175.958ZM240.898 179.437C240.898 179.114 240.774 178.882 240.525 178.741C240.276 178.594 239.902 178.521 239.404 178.521H237.632V180.455H239.448C239.922 180.455 240.281 180.367 240.525 180.191C240.774 180.01 240.898 179.759 240.898 179.437ZM240.693 176.133C240.693 175.635 240.298 175.386 239.507 175.386H237.632V177.005H239.25C239.724 177.005 240.083 176.937 240.327 176.8C240.571 176.663 240.693 176.441 240.693 176.133ZM250.361 173.812H252.822L249.578 177.737L253.108 182H250.574L247.227 177.847V182H244.993V173.812H247.227V177.789L250.361 173.812ZM256.44 173.812V177.049C256.44 177.391 256.384 178.226 256.272 179.554L260.051 173.812H262.739V182H260.579V178.733C260.579 178.152 260.627 177.332 260.725 176.272L256.96 182H254.28V173.812H256.44Z" fill="black"/>
<ellipse cx="75.4466" cy="176" rx="20.4466" ry="19" fill="#00A510"/>
<path d="M117.666 120H116.421V111.113H111.424V120H110.167V110.006H117.666V120ZM126.757 116.233C126.757 117.459 126.447 118.416 125.828 119.104C125.208 119.793 124.351 120.137 123.257 120.137C122.578 120.137 121.977 119.979 121.453 119.665C120.929 119.346 120.525 118.89 120.243 118.298C119.96 117.705 119.819 117.017 119.819 116.233C119.819 115.012 120.124 114.062 120.735 113.383C121.346 112.699 122.202 112.357 123.305 112.357C124.362 112.357 125.201 112.706 125.821 113.403C126.445 114.096 126.757 115.039 126.757 116.233ZM121.09 116.233C121.09 117.177 121.275 117.895 121.644 118.387C122.018 118.874 122.567 119.118 123.292 119.118C124.007 119.118 124.552 118.874 124.925 118.387C125.299 117.895 125.486 117.177 125.486 116.233C125.486 115.29 125.297 114.581 124.918 114.107C124.545 113.629 123.996 113.39 123.271 113.39C121.817 113.39 121.09 114.338 121.09 116.233ZM135.377 122.604H134.188V120H128.965V122.604H127.79V118.961H128.391C128.997 118.118 129.469 117.143 129.806 116.035C130.143 114.923 130.321 113.743 130.339 112.494H134.284V118.961H135.377V122.604ZM133.094 118.961V113.465H131.426C131.358 114.472 131.162 115.484 130.838 116.5C130.519 117.512 130.127 118.332 129.663 118.961H133.094ZM141.427 113.533H138.078V120H136.847V112.494H141.427V113.533ZM149.371 116.233C149.371 117.459 149.061 118.416 148.441 119.104C147.821 119.793 146.964 120.137 145.871 120.137C145.192 120.137 144.59 119.979 144.066 119.665C143.542 119.346 143.139 118.89 142.856 118.298C142.573 117.705 142.432 117.017 142.432 116.233C142.432 115.012 142.737 114.062 143.348 113.383C143.959 112.699 144.816 112.357 145.918 112.357C146.976 112.357 147.814 112.706 148.434 113.403C149.058 114.096 149.371 115.039 149.371 116.233ZM143.704 116.233C143.704 117.177 143.888 117.895 144.257 118.387C144.631 118.874 145.18 119.118 145.905 119.118C146.62 119.118 147.165 118.874 147.539 118.387C147.912 117.895 148.099 117.177 148.099 116.233C148.099 115.29 147.91 114.581 147.532 114.107C147.158 113.629 146.609 113.39 145.884 113.39C144.431 113.39 143.704 114.338 143.704 116.233ZM156.439 113.533H153.985V120H152.768V113.533H150.348V112.494H156.439V113.533ZM164.382 116.233C164.382 117.459 164.072 118.416 163.453 119.104C162.833 119.793 161.976 120.137 160.882 120.137C160.203 120.137 159.602 119.979 159.078 119.665C158.554 119.346 158.15 118.89 157.868 118.298C157.585 117.705 157.444 117.017 157.444 116.233C157.444 115.012 157.749 114.062 158.36 113.383C158.971 112.699 159.827 112.357 160.93 112.357C161.987 112.357 162.826 112.706 163.446 113.403C164.07 114.096 164.382 115.039 164.382 116.233ZM158.715 116.233C158.715 117.177 158.9 117.895 159.269 118.387C159.643 118.874 160.192 119.118 160.917 119.118C161.632 119.118 162.177 118.874 162.55 118.387C162.924 117.895 163.111 117.177 163.111 116.233C163.111 115.29 162.922 114.581 162.543 114.107C162.17 113.629 161.621 113.39 160.896 113.39C159.442 113.39 158.715 114.338 158.715 116.233ZM172.51 114.388C172.51 114.871 172.374 115.24 172.1 115.495C171.827 115.746 171.437 115.917 170.931 116.008V116.069C171.565 116.156 172.025 116.345 172.312 116.637C172.604 116.924 172.75 117.311 172.75 117.799C172.75 118.51 172.487 119.054 171.963 119.433C171.444 119.811 170.694 120 169.714 120H166.337V112.494H169.701C171.574 112.494 172.51 113.125 172.51 114.388ZM171.519 117.73C171.519 117.311 171.355 117.017 171.027 116.849C170.699 116.68 170.218 116.596 169.584 116.596H167.568V119.009H169.612C170.883 119.009 171.519 118.583 171.519 117.73ZM171.307 114.497C171.307 114.146 171.17 113.896 170.897 113.745C170.628 113.595 170.22 113.52 169.673 113.52H167.568V115.577H169.448C170.118 115.577 170.594 115.495 170.876 115.331C171.164 115.162 171.307 114.884 171.307 114.497ZM178.84 112.494H180.187L176.981 116.11L180.454 120H179.025L175.634 116.192V120H174.404V112.494H175.634V116.138L178.84 112.494ZM186.449 120L186.209 118.934H186.155C185.781 119.403 185.407 119.722 185.034 119.891C184.665 120.055 184.197 120.137 183.632 120.137C182.894 120.137 182.315 119.943 181.896 119.556C181.477 119.168 181.267 118.621 181.267 117.915C181.267 116.393 182.468 115.595 184.87 115.522L186.141 115.475V115.03C186.141 114.461 186.018 114.041 185.772 113.772C185.526 113.499 185.132 113.362 184.589 113.362C184.193 113.362 183.817 113.422 183.461 113.54C183.111 113.659 182.78 113.791 182.47 113.937L182.094 113.014C182.472 112.813 182.885 112.656 183.332 112.542C183.778 112.428 184.22 112.371 184.658 112.371C185.565 112.371 186.239 112.572 186.681 112.973C187.123 113.374 187.344 114.012 187.344 114.887V120H186.449ZM183.913 119.146C184.601 119.146 185.141 118.961 185.533 118.592C185.929 118.218 186.127 117.689 186.127 117.006V116.329L185.02 116.377C184.159 116.409 183.53 116.546 183.133 116.787C182.741 117.029 182.545 117.409 182.545 117.929C182.545 118.321 182.664 118.621 182.901 118.831C183.142 119.041 183.48 119.146 183.913 119.146ZM200.073 122.604H198.883V120H193.661V122.604H192.485V118.961H193.086C193.693 118.118 194.164 117.143 194.501 116.035C194.839 114.923 195.016 113.743 195.035 112.494H198.979V118.961H200.073V122.604ZM197.79 118.961V113.465H196.122C196.053 114.472 195.857 115.484 195.534 116.5C195.215 117.512 194.823 118.332 194.358 118.961H197.79ZM208.064 116.233C208.064 117.459 207.754 118.416 207.134 119.104C206.514 119.793 205.658 120.137 204.564 120.137C203.885 120.137 203.283 119.979 202.759 119.665C202.235 119.346 201.832 118.89 201.549 118.298C201.267 117.705 201.125 117.017 201.125 116.233C201.125 115.012 201.431 114.062 202.042 113.383C202.652 112.699 203.509 112.357 204.612 112.357C205.669 112.357 206.508 112.706 207.127 113.403C207.752 114.096 208.064 115.039 208.064 116.233ZM202.397 116.233C202.397 117.177 202.582 117.895 202.951 118.387C203.324 118.874 203.874 119.118 204.598 119.118C205.314 119.118 205.858 118.874 206.232 118.387C206.606 117.895 206.792 117.177 206.792 116.233C206.792 115.29 206.603 114.581 206.225 114.107C205.851 113.629 205.302 113.39 204.578 113.39C203.124 113.39 202.397 114.338 202.397 116.233ZM214.456 112.494H215.802L212.596 116.11L216.069 120H214.64L211.25 116.192V120H210.019V112.494H211.25V116.138L214.456 112.494ZM216.253 112.494H217.573L219.193 116.767C219.535 117.696 219.744 118.378 219.822 118.811H219.876C219.917 118.642 220.011 118.327 220.157 117.867C220.303 117.402 220.426 117.031 220.526 116.753L222.05 112.494H223.376L220.143 121.039C219.829 121.868 219.455 122.463 219.022 122.823C218.589 123.183 218.054 123.363 217.416 123.363C217.074 123.363 216.734 123.325 216.397 123.247V122.27C216.625 122.324 216.898 122.352 217.217 122.352C217.609 122.352 217.942 122.242 218.215 122.023C218.489 121.809 218.712 121.477 218.885 121.025L219.275 120.027L216.253 112.494ZM228.558 118.824C228.695 118.327 228.868 117.815 229.078 117.286L231.033 112.494H232.619V120H231.511V113.813C231.352 114.31 231.165 114.832 230.951 115.379L229.078 120H228.08L226.207 115.352C226.115 115.133 226.024 114.894 225.933 114.634C225.847 114.374 225.76 114.101 225.673 113.813V120H224.566V112.494H226.104L227.998 117.102C228.166 117.53 228.353 118.104 228.558 118.824ZM238.204 120.137C237.078 120.137 236.194 119.797 235.551 119.118C234.913 118.435 234.594 117.496 234.594 116.302C234.594 115.099 234.893 114.142 235.49 113.431C236.087 112.715 236.893 112.357 237.91 112.357C238.853 112.357 239.605 112.663 240.166 113.273C240.726 113.88 241.006 114.702 241.006 115.741V116.486H235.866C235.889 117.339 236.105 117.986 236.515 118.428C236.925 118.87 237.506 119.091 238.258 119.091C238.659 119.091 239.04 119.057 239.4 118.988C239.76 118.915 240.181 118.776 240.665 118.571V119.651C240.25 119.829 239.86 119.954 239.496 120.027C239.131 120.1 238.7 120.137 238.204 120.137ZM237.896 113.362C237.308 113.362 236.843 113.551 236.501 113.93C236.16 114.308 235.957 114.834 235.893 115.509H239.714C239.705 114.807 239.543 114.274 239.229 113.909C238.915 113.545 238.47 113.362 237.896 113.362ZM244.144 112.494V115.618H248.218V112.494H249.449V120H248.218V116.657H244.144V120H242.914V112.494H244.144ZM257.023 113.533H254.569V120H253.352V113.533H250.932V112.494H257.023V113.533ZM264.966 116.233C264.966 117.459 264.656 118.416 264.037 119.104C263.417 119.793 262.56 120.137 261.466 120.137C260.787 120.137 260.186 119.979 259.662 119.665C259.138 119.346 258.734 118.89 258.452 118.298C258.169 117.705 258.028 117.017 258.028 116.233C258.028 115.012 258.333 114.062 258.944 113.383C259.555 112.699 260.411 112.357 261.514 112.357C262.571 112.357 263.41 112.706 264.03 113.403C264.654 114.096 264.966 115.039 264.966 116.233ZM259.299 116.233C259.299 117.177 259.484 117.895 259.853 118.387C260.227 118.874 260.776 119.118 261.5 119.118C262.216 119.118 262.761 118.874 263.134 118.387C263.508 117.895 263.695 117.177 263.695 116.233C263.695 115.29 263.506 114.581 263.127 114.107C262.754 113.629 262.205 113.39 261.48 113.39C260.026 113.39 259.299 114.338 259.299 116.233ZM273.094 114.388C273.094 114.871 272.958 115.24 272.684 115.495C272.411 115.746 272.021 115.917 271.515 116.008V116.069C272.149 116.156 272.609 116.345 272.896 116.637C273.188 116.924 273.333 117.311 273.333 117.799C273.333 118.51 273.071 119.054 272.547 119.433C272.028 119.811 271.278 120 270.298 120H266.921V112.494H270.285C272.158 112.494 273.094 113.125 273.094 114.388ZM272.103 117.73C272.103 117.311 271.939 117.017 271.611 116.849C271.283 116.68 270.802 116.596 270.168 116.596H268.152V119.009H270.196C271.467 119.009 272.103 118.583 272.103 117.73ZM271.891 114.497C271.891 114.146 271.754 113.896 271.481 113.745C271.212 113.595 270.804 113.52 270.257 113.52H268.152V115.577H270.032C270.702 115.577 271.178 115.495 271.46 115.331C271.748 115.162 271.891 114.884 271.891 114.497Z" fill="#9D9D9D"/>
<ellipse cx="75.4466" cy="115" rx="20.4466" ry="19" fill="#D9D9D9"/>
<path d="M66.2734 41L63.5234 32.0391H63.4531C63.5521 33.862 63.6016 35.0781 63.6016 35.6875V41H61.4375V29.5781H64.7344L67.4375 38.3125H67.4844L70.3516 29.5781H73.6484V41H71.3906V35.5938C71.3906 35.3385 71.3932 35.0443 71.3984 34.7109C71.4089 34.3776 71.4453 33.4922 71.5078 32.0547H71.4375L68.4922 41H66.2734ZM79.9609 33.7969C79.4557 33.7969 79.0599 33.9583 78.7734 34.2812C78.487 34.599 78.3229 35.0521 78.2812 35.6406H81.625C81.6146 35.0521 81.4609 34.599 81.1641 34.2812C80.8672 33.9583 80.4661 33.7969 79.9609 33.7969ZM80.2969 41.1562C78.8906 41.1562 77.7917 40.7682 77 39.9922C76.2083 39.2161 75.8125 38.1172 75.8125 36.6953C75.8125 35.2318 76.1771 34.1016 76.9062 33.3047C77.6406 32.5026 78.6536 32.1016 79.9453 32.1016C81.1797 32.1016 82.1406 32.4531 82.8281 33.1562C83.5156 33.8594 83.8594 34.8307 83.8594 36.0703V37.2266H78.2266C78.2526 37.9036 78.4531 38.4323 78.8281 38.8125C79.2031 39.1927 79.7292 39.3828 80.4062 39.3828C80.9323 39.3828 81.4297 39.3281 81.8984 39.2188C82.3672 39.1094 82.8568 38.9349 83.3672 38.6953V40.5391C82.9505 40.7474 82.5052 40.901 82.0312 41C81.5573 41.1042 80.9792 41.1562 80.2969 41.1562ZM89.3438 41.1562C86.625 41.1562 85.2656 39.6641 85.2656 36.6797C85.2656 35.1953 85.6354 34.0625 86.375 33.2812C87.1146 32.4948 88.1745 32.1016 89.5547 32.1016C90.5651 32.1016 91.4714 32.2995 92.2734 32.6953L91.5703 34.5391C91.1953 34.388 90.8464 34.2656 90.5234 34.1719C90.2005 34.0729 89.8776 34.0234 89.5547 34.0234C88.3151 34.0234 87.6953 34.9036 87.6953 36.6641C87.6953 38.3724 88.3151 39.2266 89.5547 39.2266C90.013 39.2266 90.4375 39.1667 90.8281 39.0469C91.2188 38.9219 91.6094 38.7292 92 38.4688V40.5078C91.6146 40.7526 91.224 40.9219 90.8281 41.0156C90.4375 41.1094 89.9427 41.1562 89.3438 41.1562ZM101.258 32.2656V34.0547H98.3984V41H96.0156V34.0547H93.1484V32.2656H101.258ZM104.711 36.6172C104.711 37.4818 104.852 38.1354 105.133 38.5781C105.419 39.0208 105.883 39.2422 106.523 39.2422C107.159 39.2422 107.615 39.0234 107.891 38.5859C108.172 38.1432 108.312 37.487 108.312 36.6172C108.312 35.7526 108.172 35.1042 107.891 34.6719C107.609 34.2396 107.148 34.0234 106.508 34.0234C105.872 34.0234 105.414 34.2396 105.133 34.6719C104.852 35.099 104.711 35.7474 104.711 36.6172ZM110.75 36.6172C110.75 38.0391 110.375 39.151 109.625 39.9531C108.875 40.7552 107.831 41.1562 106.492 41.1562C105.654 41.1562 104.914 40.974 104.273 40.6094C103.633 40.2396 103.141 39.7109 102.797 39.0234C102.453 38.3359 102.281 37.5339 102.281 36.6172C102.281 35.1901 102.654 34.0807 103.398 33.2891C104.143 32.4974 105.19 32.1016 106.539 32.1016C107.378 32.1016 108.117 32.2839 108.758 32.6484C109.398 33.013 109.891 33.5365 110.234 34.2188C110.578 34.901 110.75 35.7005 110.75 36.6172ZM120.656 32.2656V41H118.266V34.0547H115.102V41H112.719V32.2656H120.656ZM125.055 36.6172C125.055 37.4818 125.195 38.1354 125.477 38.5781C125.763 39.0208 126.227 39.2422 126.867 39.2422C127.503 39.2422 127.958 39.0234 128.234 38.5859C128.516 38.1432 128.656 37.487 128.656 36.6172C128.656 35.7526 128.516 35.1042 128.234 34.6719C127.953 34.2396 127.492 34.0234 126.852 34.0234C126.216 34.0234 125.758 34.2396 125.477 34.6719C125.195 35.099 125.055 35.7474 125.055 36.6172ZM131.094 36.6172C131.094 38.0391 130.719 39.151 129.969 39.9531C129.219 40.7552 128.174 41.1562 126.836 41.1562C125.997 41.1562 125.258 40.974 124.617 40.6094C123.977 40.2396 123.484 39.7109 123.141 39.0234C122.797 38.3359 122.625 37.5339 122.625 36.6172C122.625 35.1901 122.997 34.0807 123.742 33.2891C124.487 32.4974 125.534 32.1016 126.883 32.1016C127.721 32.1016 128.461 32.2839 129.102 32.6484C129.742 33.013 130.234 33.5365 130.578 34.2188C130.922 34.901 131.094 35.7005 131.094 36.6172ZM140.883 41H138.5V34.0547H136.305C136.138 36.0078 135.935 37.4661 135.695 38.4297C135.456 39.388 135.135 40.0833 134.734 40.5156C134.339 40.9427 133.818 41.1562 133.172 41.1562C132.62 41.1562 132.167 41.0729 131.812 40.9062V39C132.068 39.1042 132.323 39.1562 132.578 39.1562C132.875 39.1562 133.122 38.9427 133.32 38.5156C133.523 38.0885 133.703 37.3776 133.859 36.3828C134.021 35.3828 134.159 34.0104 134.273 32.2656H140.883V41ZM145.289 36.6172C145.289 37.4818 145.43 38.1354 145.711 38.5781C145.997 39.0208 146.461 39.2422 147.102 39.2422C147.737 39.2422 148.193 39.0234 148.469 38.5859C148.75 38.1432 148.891 37.487 148.891 36.6172C148.891 35.7526 148.75 35.1042 148.469 34.6719C148.188 34.2396 147.727 34.0234 147.086 34.0234C146.451 34.0234 145.992 34.2396 145.711 34.6719C145.43 35.099 145.289 35.7474 145.289 36.6172ZM151.328 36.6172C151.328 38.0391 150.953 39.151 150.203 39.9531C149.453 40.7552 148.409 41.1562 147.07 41.1562C146.232 41.1562 145.492 40.974 144.852 40.6094C144.211 40.2396 143.719 39.7109 143.375 39.0234C143.031 38.3359 142.859 37.5339 142.859 36.6172C142.859 35.1901 143.232 34.0807 143.977 33.2891C144.721 32.4974 145.768 32.1016 147.117 32.1016C147.956 32.1016 148.695 32.2839 149.336 32.6484C149.977 33.013 150.469 33.5365 150.812 34.2188C151.156 34.901 151.328 35.7005 151.328 36.6172ZM157.766 36.5078V32.2656H159.984V36.5078L163.094 32.2656H165.555L162.336 36.4531L165.859 41H163.312L159.984 36.5703V41H157.766V36.5703L154.438 41H151.891L155.414 36.4531L152.195 32.2656H154.656L157.766 36.5078ZM170.57 33.7969C170.065 33.7969 169.669 33.9583 169.383 34.2812C169.096 34.599 168.932 35.0521 168.891 35.6406H172.234C172.224 35.0521 172.07 34.599 171.773 34.2812C171.477 33.9583 171.076 33.7969 170.57 33.7969ZM170.906 41.1562C169.5 41.1562 168.401 40.7682 167.609 39.9922C166.818 39.2161 166.422 38.1172 166.422 36.6953C166.422 35.2318 166.786 34.1016 167.516 33.3047C168.25 32.5026 169.263 32.1016 170.555 32.1016C171.789 32.1016 172.75 32.4531 173.438 33.1562C174.125 33.8594 174.469 34.8307 174.469 36.0703V37.2266H168.836C168.862 37.9036 169.062 38.4323 169.438 38.8125C169.812 39.1927 170.339 39.3828 171.016 39.3828C171.542 39.3828 172.039 39.3281 172.508 39.2188C172.977 39.1094 173.466 38.9349 173.977 38.6953V40.5391C173.56 40.7474 173.115 40.901 172.641 41C172.167 41.1042 171.589 41.1562 170.906 41.1562ZM178.789 32.2656V35.625H182.117V32.2656H184.5V41H182.117V37.3984H178.789V41H176.406V32.2656H178.789ZM189.305 32.2656V35.7188C189.305 36.0833 189.245 36.974 189.125 38.3906L193.156 32.2656H196.023V41H193.719V37.5156C193.719 36.8958 193.771 36.0208 193.875 34.8906L189.859 41H187V32.2656H189.305ZM202.148 33.7969C201.643 33.7969 201.247 33.9583 200.961 34.2812C200.674 34.599 200.51 35.0521 200.469 35.6406H203.812C203.802 35.0521 203.648 34.599 203.352 34.2812C203.055 33.9583 202.654 33.7969 202.148 33.7969ZM202.484 41.1562C201.078 41.1562 199.979 40.7682 199.188 39.9922C198.396 39.2161 198 38.1172 198 36.6953C198 35.2318 198.365 34.1016 199.094 33.3047C199.828 32.5026 200.841 32.1016 202.133 32.1016C203.367 32.1016 204.328 32.4531 205.016 33.1562C205.703 33.8594 206.047 34.8307 206.047 36.0703V37.2266H200.414C200.44 37.9036 200.641 38.4323 201.016 38.8125C201.391 39.1927 201.917 39.3828 202.594 39.3828C203.12 39.3828 203.617 39.3281 204.086 39.2188C204.555 39.1094 205.044 38.9349 205.555 38.6953V40.5391C205.138 40.7474 204.693 40.901 204.219 41C203.745 41.1042 203.167 41.1562 202.484 41.1562ZM216.844 39.2578V34.0547H215.055C214.924 35.0234 214.745 35.9427 214.516 36.8125C214.292 37.6823 213.979 38.4974 213.578 39.2578H216.844ZM220.508 44.1328H218.367V41H212.492V44.1328H210.352V39.2578H211.086C211.586 38.4818 212.005 37.5026 212.344 36.3203C212.682 35.138 212.919 33.7865 213.055 32.2656H219.227V39.2578H220.508V44.1328ZM223.898 36.6172C223.898 37.4818 224.039 38.1354 224.32 38.5781C224.607 39.0208 225.07 39.2422 225.711 39.2422C226.346 39.2422 226.802 39.0234 227.078 38.5859C227.359 38.1432 227.5 37.487 227.5 36.6172C227.5 35.7526 227.359 35.1042 227.078 34.6719C226.797 34.2396 226.336 34.0234 225.695 34.0234C225.06 34.0234 224.602 34.2396 224.32 34.6719C224.039 35.099 223.898 35.7474 223.898 36.6172ZM229.938 36.6172C229.938 38.0391 229.562 39.151 228.812 39.9531C228.062 40.7552 227.018 41.1562 225.68 41.1562C224.841 41.1562 224.102 40.974 223.461 40.6094C222.82 40.2396 222.328 39.7109 221.984 39.0234C221.641 38.3359 221.469 37.5339 221.469 36.6172C221.469 35.1901 221.841 34.0807 222.586 33.2891C223.331 32.4974 224.378 32.1016 225.727 32.1016C226.565 32.1016 227.305 32.2839 227.945 32.6484C228.586 33.013 229.078 33.5365 229.422 34.2188C229.766 34.901 229.938 35.7005 229.938 36.6172ZM237.633 32.2656H240.258L236.797 36.4531L240.562 41H237.859L234.289 36.5703V41H231.906V32.2656H234.289V36.5078L237.633 32.2656ZM240.562 32.2656H243.172L244.82 37.1797C244.961 37.6068 245.057 38.112 245.109 38.6953H245.156C245.214 38.1589 245.326 37.6536 245.492 37.1797L247.109 32.2656H249.664L245.969 42.1172C245.63 43.0286 245.146 43.7109 244.516 44.1641C243.891 44.6172 243.159 44.8438 242.32 44.8438C241.909 44.8438 241.505 44.7995 241.109 44.7109V42.8203C241.396 42.888 241.708 42.9219 242.047 42.9219C242.469 42.9219 242.836 42.7917 243.148 42.5312C243.466 42.276 243.714 41.888 243.891 41.3672L244.031 40.9375L240.562 32.2656ZM261.93 41H259.703V34.1172L259.578 34.6016C259.297 35.7005 259.044 36.5312 258.82 37.0938L257.273 41H255.578L254.008 37.0625C253.784 36.4896 253.544 35.6849 253.289 34.6484L253.141 34.1172V41H250.922V32.2656H254.203L255.703 35.9922C255.859 36.3932 256.003 36.8542 256.133 37.375C256.268 37.8958 256.359 38.3411 256.406 38.7109C256.578 37.9297 256.711 37.3698 256.805 37.0312C256.904 36.6875 257.01 36.3724 257.125 36.0859C257.24 35.7995 257.758 34.526 258.68 32.2656H261.93V41ZM268.055 33.7969C267.549 33.7969 267.154 33.9583 266.867 34.2812C266.581 34.599 266.417 35.0521 266.375 35.6406H269.719C269.708 35.0521 269.555 34.599 269.258 34.2812C268.961 33.9583 268.56 33.7969 268.055 33.7969ZM268.391 41.1562C266.984 41.1562 265.885 40.7682 265.094 39.9922C264.302 39.2161 263.906 38.1172 263.906 36.6953C263.906 35.2318 264.271 34.1016 265 33.3047C265.734 32.5026 266.747 32.1016 268.039 32.1016C269.273 32.1016 270.234 32.4531 270.922 33.1562C271.609 33.8594 271.953 34.8307 271.953 36.0703V37.2266H266.32C266.346 37.9036 266.547 38.4323 266.922 38.8125C267.297 39.1927 267.823 39.3828 268.5 39.3828C269.026 39.3828 269.523 39.3281 269.992 39.2188C270.461 39.1094 270.951 38.9349 271.461 38.6953V40.5391C271.044 40.7474 270.599 40.901 270.125 41C269.651 41.1042 269.073 41.1562 268.391 41.1562ZM276.273 32.2656V35.625H279.602V32.2656H281.984V41H279.602V37.3984H276.273V41H273.891V32.2656H276.273ZM291.711 32.2656V34.0547H288.852V41H286.469V34.0547H283.602V32.2656H291.711ZM295.164 36.6172C295.164 37.4818 295.305 38.1354 295.586 38.5781C295.872 39.0208 296.336 39.2422 296.977 39.2422C297.612 39.2422 298.068 39.0234 298.344 38.5859C298.625 38.1432 298.766 37.487 298.766 36.6172C298.766 35.7526 298.625 35.1042 298.344 34.6719C298.062 34.2396 297.602 34.0234 296.961 34.0234C296.326 34.0234 295.867 34.2396 295.586 34.6719C295.305 35.099 295.164 35.7474 295.164 36.6172ZM301.203 36.6172C301.203 38.0391 300.828 39.151 300.078 39.9531C299.328 40.7552 298.284 41.1562 296.945 41.1562C296.107 41.1562 295.367 40.974 294.727 40.6094C294.086 40.2396 293.594 39.7109 293.25 39.0234C292.906 38.3359 292.734 37.5339 292.734 36.6172C292.734 35.1901 293.107 34.0807 293.852 33.2891C294.596 32.4974 295.643 32.1016 296.992 32.1016C297.831 32.1016 298.57 32.2839 299.211 32.6484C299.852 33.013 300.344 33.5365 300.688 34.2188C301.031 34.901 301.203 35.7005 301.203 36.6172ZM311.234 34.5547C311.234 35.0234 311.086 35.4245 310.789 35.7578C310.497 36.0859 310.065 36.2969 309.492 36.3906V36.4531C310.112 36.526 310.602 36.7396 310.961 37.0938C311.326 37.4427 311.508 37.875 311.508 38.3906C311.508 39.2396 311.174 39.888 310.508 40.3359C309.841 40.7786 308.888 41 307.648 41H303.172V32.2656H307.648C308.846 32.2656 309.742 32.4609 310.336 32.8516C310.935 33.237 311.234 33.8047 311.234 34.5547ZM309.039 38.2656C309.039 37.9219 308.906 37.6745 308.641 37.5234C308.375 37.3672 307.977 37.2891 307.445 37.2891H305.555V39.3516H307.492C307.997 39.3516 308.38 39.2578 308.641 39.0703C308.906 38.8776 309.039 38.6094 309.039 38.2656ZM308.82 34.7422C308.82 34.2109 308.398 33.9453 307.555 33.9453H305.555V35.6719H307.281C307.786 35.6719 308.169 35.599 308.43 35.4531C308.69 35.3073 308.82 35.0703 308.82 34.7422Z" fill="black"/>
<defs>
<linearGradient id="paint0_linear_1_32" x1="77.9985" y1="48" x2="84.9993" y2="317" gradientUnits="userSpaceOnUse">
<stop stop-color="#EFEFEF" stop-opacity="0.3"/>
<stop offset="0.229167" stop-color="#6F6F6F"/>
<stop offset="0.5" stop-color="#6F6F6F"/>
<stop offset="0.75" stop-color="#6F6F6F"/>
<stop offset="1" stop-color="#EFEFEF" stop-opacity="0.3"/>
</linearGradient>
</defs>
</svg>
