<svg width="32" height="32" viewBox="0 0 32 32" fill="none" xmlns="http://www.w3.org/2000/svg">
<path d="M31 8.00002V9.00002C31 9.13263 30.9473 9.2598 30.8536 9.35357C30.7598 9.44734 30.6326 9.50002 30.5 9.50002H29V10.25C29 10.6642 28.6642 11 28.25 11H3.75C3.33581 11 3 10.6642 3 10.25V9.50002H1.5C1.36739 9.50002 1.24021 9.44734 1.14645 9.35357C1.05268 9.2598 1 9.13263 1 9.00002V8.00002C1 7.9011 1.02934 7.8044 1.08431 7.72216C1.13928 7.63993 1.21741 7.57584 1.30881 7.53802L15.8088 2.03802C15.9312 1.98733 16.0688 1.98733 16.1912 2.03802L30.6912 7.53802C30.7826 7.57584 30.8607 7.63993 30.9157 7.72216C30.9707 7.8044 31 7.9011 31 8.00002ZM29.5 27H2.5C1.67156 27 1 27.6716 1 28.5V29.5C1 29.6326 1.05268 29.7598 1.14645 29.8536C1.24021 29.9473 1.36739 30 1.5 30H30.5C30.6326 30 30.7598 29.9473 30.8536 29.8536C30.9473 29.7598 31 29.6326 31 29.5V28.5C31 27.6716 30.3284 27 29.5 27ZM6 12V24H3.75C3.33581 24 3 24.3358 3 24.75V26H29V24.75C29 24.3358 28.6642 24 28.25 24H26V12H22V24H18V12H14V24H10V12H6Z" fill="#0A0A0A"/>
</svg>
