<svg width="84" height="74" viewBox="0 0 84 74" fill="none" xmlns="http://www.w3.org/2000/svg">
<path d="M43.3458 2.21095L76.0731 14.8679C77.3458 15.3601 78.364 16.8367 78.364 18.1376V29.8103C78.364 31.744 76.7276 33.3261 74.7276 33.3261H9.27308C7.27308 33.3261 5.63672 31.744 5.63672 29.8103V18.1376C5.63672 16.8367 6.6549 15.3601 7.92763 14.8679L40.6549 2.21095C41.3822 1.92968 42.6185 1.92968 43.3458 2.21095Z" stroke="#292D32" stroke-width="4" stroke-miterlimit="10" stroke-linecap="round" stroke-linejoin="round"/>
<path d="M78.364 72.0002H5.63672V61.4527C5.63672 59.519 7.27308 57.9369 9.27308 57.9369H74.7276C76.7276 57.9369 78.364 59.519 78.364 61.4527V72.0002Z" stroke="#292D32" stroke-width="4" stroke-miterlimit="10" stroke-linecap="round" stroke-linejoin="round"/>
<path d="M12.9092 57.9364V33.3256" stroke="#292D32" stroke-width="4" stroke-miterlimit="10" stroke-linecap="round" stroke-linejoin="round"/>
<path d="M27.4551 57.9364V33.3256" stroke="#292D32" stroke-width="4" stroke-miterlimit="10" stroke-linecap="round" stroke-linejoin="round"/>
<path d="M42 57.9364V33.3256" stroke="#292D32" stroke-width="4" stroke-miterlimit="10" stroke-linecap="round" stroke-linejoin="round"/>
<path d="M56.5449 57.9364V33.3256" stroke="#292D32" stroke-width="4" stroke-miterlimit="10" stroke-linecap="round" stroke-linejoin="round"/>
<path d="M71.0908 57.9364V33.3256" stroke="#292D32" stroke-width="4" stroke-miterlimit="10" stroke-linecap="round" stroke-linejoin="round"/>
<path d="M2 71.9998H82" stroke="#292D32" stroke-width="4" stroke-miterlimit="10" stroke-linecap="round" stroke-linejoin="round"/>
<path d="M41.9995 24.536C45.0118 24.536 47.454 22.1748 47.454 19.2622C47.454 16.3496 45.0118 13.9885 41.9995 13.9885C38.9871 13.9885 36.5449 16.3496 36.5449 19.2622C36.5449 22.1748 38.9871 24.536 41.9995 24.536Z" stroke="#292D32" stroke-width="4" stroke-miterlimit="10" stroke-linecap="round" stroke-linejoin="round"/>
</svg>
