<svg width="52" height="74" viewBox="0 0 52 74" fill="none" xmlns="http://www.w3.org/2000/svg">
<path d="M25.9817 33.3428C25.6298 33.3074 25.2075 33.3074 24.8204 33.3428C16.445 33.0601 9.79395 26.1696 9.79395 17.689C9.79395 9.0318 16.7617 2 25.4187 2C34.0404 2 41.0433 9.0318 41.0433 17.689C41.0081 26.1696 34.3571 33.0601 25.9817 33.3428Z" stroke="#292D32" stroke-width="4" stroke-linecap="round" stroke-linejoin="round"/>
<path d="M8.38708 46.3816C-0.129028 52.1059 -0.129028 61.4346 8.38708 67.1236C18.0645 73.6254 33.9355 73.6254 43.6129 67.1236C52.129 61.3992 52.129 52.0706 43.6129 46.3816C33.9707 39.9151 18.0997 39.9151 8.38708 46.3816Z" stroke="#292D32" stroke-width="4" stroke-linecap="round" stroke-linejoin="round"/>
</svg>
