<svg width="71" height="70" viewBox="0 0 71 70" fill="none" xmlns="http://www.w3.org/2000/svg">
<path d="M35.8047 70C33.5582 70 31.4419 68.8636 29.9442 66.8831L25.0605 60.3896C24.9628 60.2597 24.5721 60.0974 24.4093 60.0649H22.7814C9.20469 60.0649 0.804688 56.3961 0.804688 38.1494V21.9156C0.804688 7.56493 8.39073 0 22.7814 0H48.8279C63.2186 0 70.8047 7.56493 70.8047 21.9156V38.1494C70.8047 52.5 63.2186 60.0649 48.8279 60.0649H47.2C46.9396 60.0649 46.7117 60.1948 46.5489 60.3896L41.6652 66.8831C40.1675 68.8636 38.0512 70 35.8047 70ZM22.7814 4.87013C11.1256 4.87013 5.68841 10.2922 5.68841 21.9156V38.1494C5.68841 52.8247 10.7349 55.1948 22.7814 55.1948H24.4093C26.0698 55.1948 27.9582 56.1364 28.9675 57.4675L33.8512 63.961C34.9907 65.4545 36.6186 65.4545 37.7582 63.961L42.6419 57.4675C43.7163 56.039 45.4093 55.1948 47.2 55.1948H48.8279C60.4838 55.1948 65.921 49.7727 65.921 38.1494V21.9156C65.921 10.2922 60.4838 4.87013 48.8279 4.87013H22.7814Z" fill="#292D32"/>
<path d="M35.8046 34.9026C33.9814 34.9026 32.5488 33.4415 32.5488 31.6558C32.5488 29.8701 34.0139 28.4091 35.8046 28.4091C37.5953 28.4091 39.0605 29.8701 39.0605 31.6558C39.0605 33.4415 37.6279 34.9026 35.8046 34.9026Z" fill="#292D32"/>
<path d="M48.8281 34.9026C47.0048 34.9026 45.5723 33.4415 45.5723 31.6558C45.5723 29.8701 47.0374 28.4091 48.8281 28.4091C50.6188 28.4091 52.0839 29.8701 52.0839 31.6558C52.0839 33.4415 50.6513 34.9026 48.8281 34.9026Z" fill="#292D32"/>
<path d="M22.7822 34.9026C20.9589 34.9026 19.5264 33.4415 19.5264 31.6558C19.5264 29.8701 20.9915 28.4091 22.7822 28.4091C24.5729 28.4091 26.038 29.8701 26.038 31.6558C26.038 33.4415 24.6054 34.9026 22.7822 34.9026Z" fill="#292D32"/>
</svg>
